<svg id="pie-chart" xmlns="http://www.w3.org/2000/svg" width="25.483" height="25.483" viewBox="0 0 25.483 25.483">
  <g id="Group_478" data-name="Group 478" transform="translate(2.728 2.729)">
    <g id="Group_477" data-name="Group 477">
      <path id="Path_82" data-name="Path 82" d="M69.432,54.856a.748.748,0,0,0-.973.711v4.409a.751.751,0,0,0,.392.663,6.054,6.054,0,1,1-8.219,8.219.754.754,0,0,0-.662-.392H55.56a.748.748,0,0,0-.711.973A11.628,11.628,0,1,0,69.432,54.856ZM65.2,76.055a10.134,10.134,0,0,1-8.561-6.1h2.915a7.549,7.549,0,0,0,5.646,3.5Zm4.757-16.5V56.641a10.134,10.134,0,0,1,6.1,8.561h-2.6A7.549,7.549,0,0,0,69.952,59.556Zm-3.264,16.5v-2.6A7.56,7.56,0,0,0,73.451,66.7h2.6A10.149,10.149,0,0,1,66.688,76.054Z" transform="translate(-54.813 -54.82)" fill="#474747"/>
    </g>
  </g>
  <g id="Group_480" data-name="Group 480">
    <g id="Group_479" data-name="Group 479">
      <path id="Path_83" data-name="Path 83" d="M13.857,0A13.849,13.849,0,0,0,0,13.857a.747.747,0,0,0,.747.747h13.11a.747.747,0,0,0,.747-.747V.747A.747.747,0,0,0,13.857,0ZM13.11,13.11H1.515a12.359,12.359,0,0,1,11.6-11.6Z" fill="#0090f6"/>
    </g>
  </g>
</svg>
