<?xml version="1.0" encoding="utf-8"?>
<!-- Generator: Adobe Illustrator 25.0.1, SVG Export Plug-In . SVG Version: 6.00 Build 0)  -->
<svg version="1.1" id="Warstwa_1" xmlns="http://www.w3.org/2000/svg" xmlns:xlink="http://www.w3.org/1999/xlink" x="0px" y="0px"
	 viewBox="0 0 1000 1000" style="enable-background:new 0 0 1000 1000;" xml:space="preserve">
<style type="text/css">
	.st0{fill:#010002;}
</style>
<g>
	<g>
		<path class="st0" d="M108.75,45c-2.25,2.41-6.05,7.43-8.6,10.89C52.89,118.55-3.58,214.88,0.65,307.86
			c7.18,155.68,217.27,362.58,281.51,422.3c64.25,59.69,285.95,254.12,441.59,249.89c25.95-0.64,53.44-6.09,81.7-16.22
			c65.22-23.38,124.1-67.86,161.5-100.6c0,0,8.05-6.85,11.16-10.15c7.82-8.44,14.01-20.76,18.92-37.67
			c2.5-8.64,3.05-17.74,3.05-23.83c0-6.79-0.68-19.95-5.14-31.92c-6.11-16.38-13.12-28.1-21.5-35.98
			c-6.21-5.76-146.54-115.7-147.43-116.32l-1.07-0.7c-7.61-5.84-15.54-10.4-23.62-13.56c-21.15-8.29-44.58-8.62-65.98-0.97
			c-13.6,4.87-25.85,12.92-35.3,23.13l-48.22,51.62c-4.52,4.85-12.92,9.88-15.89,10.6c-3.12,0.58-5.3,0.74-6.7,0.78L305.56,377.47
			c-0.78-0.74-1.16-1.46-1.38-1.96c0.16-0.47,0.35-0.87,0.45-1.18c1.18-2.41,6.77-10.05,13.76-17.62l47.72-51.66
			c25.25-27.15,31.52-69.38,15.45-102.31c-5.72-11.74-13.56-20.51-17.19-24.65l-1.88-2.33c-0.93-1.07-119.08-130.72-124.37-135.59
			c-13.14-12.21-33.82-18.8-63.23-20.2c-16.34-0.78-36.83,4.04-48.73,11.43C118.51,36.19,112.78,40.65,108.75,45z M197.88,82.32
			c6.62,6.71,114.15,124.49,119.77,130.66l3.96,4.79c1.61,1.8,5.39,6.05,7.61,10.56c5.74,11.8,3.49,27.17-5.82,37.2l-47.78,51.72
			c-5.59,6.04-19.17,21.48-24.57,34.35c-3.57,8.58-5.26,16.05-5.28,24.72c0.58,16.57,7.61,32.02,19.99,43.68l326.92,303.8
			c12.44,11.55,30.53,15.23,53.77,10.95c17.97-3.32,37.43-16.9,47.91-28.12l48.3-51.72c3.22-3.47,7.49-6.23,12.3-7.98
			c8.03-2.87,17.19-2.74,25.11,0.37c4.62,1.8,8.46,4.81,9.72,5.8c1.2,0.93,2.17,1.61,3.05,2.15
			c13.45,10.42,134.12,105.26,140.66,110.77c0.02,0.04,2.87,3.24,6.89,13.97c0.56,1.51,1.46,5.98,1.46,11.55
			c0,4.02-0.45,6.64-0.74,7.59c-3.03,10.4-5.53,14.05-5.53,14.13c-1.88,1.88-5.8,5.12-6.46,5.69
			c-34.14,29.87-86.69,69.75-143.33,90.04c-22.39,8.03-43.74,12.34-63.54,12.83c-106.33,2.89-282.18-124.45-400.45-234.35
			C203.52,577.6,63.7,411.51,58.81,305.18c-3.57-76.65,46.28-159.15,87.33-213.6l1.57-2.1c0.91-1.24,2.56-3.57,3.42-4.58
			c1.46-1.38,3.63-2.72,5.36-3.8c2.58-1.32,10.6-3.18,15.6-2.93C189.28,79,197.24,82.09,197.88,82.32z"/>
	</g>
</g>
</svg>
