<?xml version="1.0" encoding="utf-8"?>
<!-- Generator: Adobe Illustrator 25.0.1, SVG Export Plug-In . SVG Version: 6.00 Build 0)  -->
<svg version="1.1" id="Warstwa_2" xmlns="http://www.w3.org/2000/svg" xmlns:xlink="http://www.w3.org/1999/xlink" x="0px" y="0px"
	 viewBox="0 0 1000 1000" style="enable-background:new 0 0 1000 1000;" xml:space="preserve">
<path d="M499.78,943.86c-14.23,0-27.95-5.15-38.64-14.49c-40.38-35.25-79.31-68.37-113.66-97.59l-0.18-0.15
	C246.6,745.96,159.64,671.98,99.14,599.11C31.5,517.64,0,440.39,0,356.01c0-81.99,28.16-157.63,79.3-212.99
	c51.74-56.02,122.74-86.88,199.94-86.88c57.7,0,110.54,18.21,157.05,54.12c23.47,18.13,44.75,40.31,63.49,66.18
	c18.75-25.88,40.02-48.06,63.5-66.18c46.51-35.91,99.35-54.12,157.05-54.12c77.19,0,148.2,30.85,199.94,86.88
	c51.13,55.37,79.29,131.01,79.29,212.99c0,84.39-31.5,161.63-99.13,243.09c-60.51,72.88-147.46,146.86-248.14,232.51
	c-34.41,29.26-73.4,62.44-113.87,97.77C527.73,938.72,514,943.86,499.78,943.86z M279.24,114.59c-60.65,0-116.37,24.16-156.9,68.04
	C81.2,227.17,58.55,288.74,58.55,356.01c0,70.97,26.42,134.45,85.67,205.81c57.26,68.98,142.44,141.43,241.06,225.33l0.18,0.15
	c34.48,29.33,73.56,62.58,114.24,98.09c40.92-35.57,80.07-68.88,114.61-98.26c98.61-83.9,183.78-156.34,241.04-225.32
	c59.24-71.36,85.66-134.83,85.66-205.81c0-67.27-22.66-128.84-63.79-173.38c-40.52-43.88-96.25-68.04-156.89-68.04
	c-44.43,0-85.22,14.1-121.24,41.9c-32.1,24.79-54.46,56.12-67.57,78.04c-6.74,11.27-18.61,18-31.75,18c-13.14,0-25.01-6.73-31.75-18
	c-13.1-21.92-35.46-53.26-67.57-78.04C364.45,128.69,323.66,114.59,279.24,114.59z"/>
</svg>
