<?xml version="1.0" encoding="utf-8"?>
<!-- Generator: Adobe Illustrator 25.0.1, SVG Export Plug-In . SVG Version: 6.00 Build 0)  -->
<svg version="1.1" id="Warstwa_1" xmlns="http://www.w3.org/2000/svg" xmlns:xlink="http://www.w3.org/1999/xlink" x="0px" y="0px"
	 viewBox="0 0 1000 1000" style="enable-background:new 0 0 1000 1000;" xml:space="preserve">
<path d="M500.91,1000c-79.51,0-165.68-14.62-256.12-43.46c-72.51-23.12-127.24-49.11-147.4-59.21l-13.49-6.76l0.25-15.09
	c2.23-136.9,45.43-262.18,121.64-352.75c25.87-30.74,57.21-45.68,95.79-45.68c0.04,0,0.07,0,0.11,0
	c31.77,0.02,63.49,9.94,97.08,20.44c33.49,10.47,68.13,21.3,102.14,21.3s68.64-10.83,102.14-21.3
	c33.59-10.5,65.32-20.42,97.08-20.44c0.04,0,0.08,0,0.11,0c38.59,0,69.92,14.94,95.79,45.68c76.31,90.7,119.52,216.13,121.66,353.19
	l0.23,14.55l-12.8,6.93C860.65,921.47,700.11,1000,500.91,1000z M132.57,861.06C185.53,886.06,340.43,952,500.91,952
	c171.99,0,313.48-62.08,368.38-90.01c-4.67-120.26-43.47-229.29-109.99-308.35c-34.76-41.3-74.57-31.39-141.93-10.33
	c-35.21,11.01-75.12,23.48-116.46,23.48c-41.34,0-81.25-12.48-116.46-23.48c-67.37-21.06-107.18-30.96-141.94,10.34
	C176.18,632.47,137.41,741.16,132.57,861.06z"/>
<path d="M500.91,440.86c-58.88,0-114.23-22.93-155.87-64.56s-64.56-96.99-64.56-155.87c0-58.88,22.93-114.23,64.56-155.87
	S442.03,0,500.91,0c58.88,0,114.23,22.93,155.87,64.56c41.63,41.63,64.56,96.99,64.56,155.87c0,58.88-22.93,114.23-64.56,155.87
	C615.14,417.93,559.79,440.86,500.91,440.86z M500.91,48c-95.08,0-172.43,77.35-172.43,172.43c0,95.08,77.35,172.43,172.43,172.43
	s172.43-77.35,172.43-172.43C673.34,125.35,595.99,48,500.91,48z"/>
</svg>
