<?xml version="1.0" encoding="utf-8"?>
<!-- Generator: Adobe Illustrator 25.0.1, SVG Export Plug-In . SVG Version: 6.00 Build 0)  -->
<svg version="1.1" id="Warstwa_3" xmlns="http://www.w3.org/2000/svg" xmlns:xlink="http://www.w3.org/1999/xlink" x="0px" y="0px"
	 viewBox="0 0 1000 1000" style="enable-background:new 0 0 1000 1000;" xml:space="preserve">
<g>
	<path d="M895.22,996.02c-26.14,0-53.55-9.22-83.81-28.18c-28.9-18.11-59.63-44.63-93.96-81.08
		c-35.25-37.48-86.41-59.85-136.86-59.85H420.73c-50.46,0-101.62,22.37-136.86,59.85c-34.33,36.46-65.07,62.98-93.97,81.09
		c-30.26,18.96-57.68,28.17-83.81,28.17c-14.11,0-41.17-3.65-63.88-28.09C17.28,941.12,4.64,897.01,4.64,836.83
		c0-42.55,6.73-93.39,19.45-147.05c13.32-56.17,32.37-111.32,55.07-159.5c25.88-54.9,55.3-98.72,87.46-130.24
		c37.88-37.13,78.45-55.96,120.58-55.96c53.47,0,79.41,17.68,100.25,31.89c15.29,10.45,28.48,19.45,59.39,24.48h35.98
		c15.15-16.5,31-39.32,31-55.46c0-20.8-27.17-53.4-41.71-66.23c-2.84-2.48-71.03-62.79-71.03-132.94
		c0-67.07,63.85-124.8,71.13-131.16c8.69-7.6,19.82-11.37,31.34-10.58c11.48,0.78,21.97,5.99,29.53,14.67
		c15.65,17.79,13.92,45.11-3.92,60.85c-14.54,12.83-41.71,45.43-41.71,66.23c0,22.31,29.44,57.28,41.71,68.11
		c7.22,6.3,71.03,63.93,71.03,131.06c0,14.43-2.98,29.37-8.89,44.68c8.49-4.11,15.39-8.82,22.48-13.66
		c20.89-14.24,46.83-31.92,100.3-31.92c42.13,0,82.7,18.83,120.58,55.96c32.16,31.52,61.58,75.34,87.46,130.24
		c22.71,48.18,41.75,103.33,55.07,159.5c12.73,53.65,19.45,104.5,19.45,147.05c0,40.8-6.17,74.94-18.35,101.49
		C961.54,974.99,931.25,996.02,895.22,996.02z M420.73,796.92h159.86c58.58,0,117.91,25.91,158.71,69.3
		c32.09,34.07,61.71,59.72,88.04,76.21c24.99,15.66,47.83,23.6,67.89,23.6c30.93,0,47.44-21.87,55.83-40.21
		c10.22-22.29,15.62-53.06,15.62-88.99c0-84.75-28.8-202.81-71.66-293.76c-29.74-63.11-92.8-168.99-180.91-168.99
		c-44.22,0-64.12,13.56-83.35,26.68c-15.48,10.56-32.98,22.5-66.3,28.56l-33.76,6.14l18.42-28.95c14-22,21.1-42.7,21.1-61.52
		c0-54.81-58.33-106.34-60.81-108.51c-11.02-9.72-51.93-53.41-51.93-90.66c0-42.49,51.35-88.27,51.87-88.73
		c5.45-4.8,5.98-13.14,1.19-18.59c-2.34-2.68-5.51-4.26-8.99-4.5c-3.52-0.24-6.91,0.91-9.56,3.23
		c-2.49,2.18-60.88,53.82-60.88,108.58c0,47.02,43.9,95.63,60.81,110.39c0.58,0.51,51.93,46.29,51.93,88.78
		c0,32.66-30.66,67.49-43.84,80.96l-4.41,4.51h-51.1l-1.16-0.18c-38.41-6.04-55.86-17.96-72.74-29.49
		c-19.27-13.14-39.17-26.7-83.39-26.7c-88.11,0-151.16,105.88-180.91,168.99c-42.86,90.95-71.66,209-71.66,293.76
		c0,51.62,10.22,89.9,29.54,110.69c14.22,15.3,30.64,18.51,41.91,18.51c20.05,0,42.89-7.94,67.89-23.6
		c26.33-16.5,55.95-42.14,88.05-76.22C302.82,822.82,362.15,796.92,420.73,796.92z"/>
</g>
<circle cx="259.26" cy="645.3" r="85.4"/>
<circle cx="754.06" cy="645.3" r="85.4"/>
</svg>
