<?xml version="1.0" encoding="utf-8"?>
<!-- Generator: Adobe Illustrator 25.0.1, SVG Export Plug-In . SVG Version: 6.00 Build 0)  -->
<svg version="1.1" id="Warstwa_3" xmlns="http://www.w3.org/2000/svg" xmlns:xlink="http://www.w3.org/1999/xlink" x="0px" y="0px"
	 viewBox="0 0 1000 1000" style="enable-background:new 0 0 1000 1000;" xml:space="preserve">
<path d="M792.18,524.93c-1.61,0-3.19,0.25-4.72,0.71v-50.26c1.53,0.46,3.11,0.71,4.72,0.71c14.21,0,25.72-18.48,25.72-41.28
	c0-22.8-11.52-41.28-25.72-41.28c-1.61,0-3.19,0.25-4.72,0.71V271.48c0-42.48-34.56-77.04-77.04-77.04h-77.2
	c-0.03-0.65-0.05-1.3-0.11-1.95L618.97,31.74C617.21,13.65,602.18,0,584,0H415.24c-18.29,0-33.33,13.74-34.99,31.95l-13.39,158.91
	c-0.11,1.19-0.15,2.38-0.13,3.57h-76.86c-42.48,0-77.04,34.56-77.04,77.04v458.04c0,42.48,34.56,77.04,77.04,77.04h76.9
	c0.03,0.65,0.05,1.3,0.11,1.95l14.14,160.74c1.75,18.1,16.79,31.74,34.97,31.74l168.76,0c18.29,0,33.33-13.74,34.99-31.95
	l13.39-158.91c0.11-1.19,0.15-2.38,0.13-3.57h77.16c42.48,0,77.04-34.56,77.04-77.04V606.79c1.53,0.46,3.11,0.71,4.72,0.71
	c14.21,0,25.72-18.48,25.72-41.28C817.91,543.41,806.39,524.93,792.18,524.93z M396.75,193.58l13.39-158.91
	c0.24-2.66,2.44-4.67,5.11-4.67H584c2.66,0,4.85,1.99,5.11,4.64l14.06,159.8H396.74C396.72,194.16,396.72,193.88,396.75,193.58z
	 M603.25,807.42l-13.39,158.91c-0.24,2.66-2.44,4.67-5.11,4.67L416,971c-2.66,0-4.85-1.99-5.11-4.64l-14.06-159.8h206.42
	C603.27,806.84,603.28,807.12,603.25,807.42z M757.46,729.52c0,25.94-21.1,47.04-47.04,47.04H289.88
	c-25.94,0-47.04-21.1-47.04-47.04V271.48c0-25.94,21.1-47.04,47.04-47.04h420.54c25.94,0,47.04,21.1,47.04,47.04V729.52z"/>
</svg>
