<?xml version="1.0" encoding="utf-8"?>
<!-- Generator: Adobe Illustrator 25.0.1, SVG Export Plug-In . SVG Version: 6.00 Build 0)  -->
<svg version="1.1" id="Warstwa_3" xmlns="http://www.w3.org/2000/svg" xmlns:xlink="http://www.w3.org/1999/xlink" x="0px" y="0px"
	 viewBox="0 0 1000 1000" style="enable-background:new 0 0 1000 1000;" xml:space="preserve">
<g>
	<path d="M891.33,726.51H108.67c-25.01,0-45.35-20.34-45.35-45.35V227.52c0-25.01,20.34-45.35,45.35-45.35h782.65
		c25.01,0,45.35,20.34,45.35,45.35v453.64C936.68,706.17,916.33,726.51,891.33,726.51z M108.67,212.17
		c-8.46,0-15.35,6.89-15.35,15.35v453.64c0,8.46,6.89,15.35,15.35,15.35h782.65c8.46,0,15.35-6.89,15.35-15.35V227.52
		c0-8.46-6.89-15.35-15.35-15.35H108.67z"/>
	<path d="M946.52,817.83H53.48c-12.61,0-22.83-10.22-22.83-22.83l0,0c0-12.61,10.22-22.83,22.83-22.83h893.04
		c12.61,0,22.83,10.22,22.83,22.83l0,0C969.35,807.61,959.13,817.83,946.52,817.83z"/>
</g>
</svg>
