<?xml version="1.0" encoding="utf-8"?>
<!-- Generator: Adobe Illustrator 25.0.1, SVG Export Plug-In . SVG Version: 6.00 Build 0)  -->
<svg version="1.1" id="Warstwa_3" xmlns="http://www.w3.org/2000/svg" xmlns:xlink="http://www.w3.org/1999/xlink" x="0px" y="0px"
	 viewBox="0 0 1000 1000" style="enable-background:new 0 0 1000 1000;" xml:space="preserve">
<path d="M775.17,114.99H608.03c0.32-1.93,0.5-3.91,0.5-5.94V41.81c0-19.82-16.12-35.94-35.94-35.94H428.09
	c-19.82,0-35.94,16.12-35.94,35.94v67.24c0,2.02,0.18,4,0.5,5.94H225.52c-51.86,0-94.05,42.19-94.05,94.05v100.7
	c0,51.86,42.19,94.05,94.05,94.05h243.59L271.45,970.74c-2.73,7.82,1.4,16.37,9.23,19.1h0c7.82,2.73,16.37-1.4,19.1-9.23
	l185.57-532.25v525.68c0,8.28,6.72,15,15,15c8.28,0,15-6.72,15-15v-523.7l185.22,531.27c2.73,7.82,11.28,11.95,19.1,9.23
	s11.95-11.28,9.23-19.1L530.89,403.79h244.28c51.86,0,94.05-42.19,94.05-94.05v-100.7C869.22,157.18,827.03,114.99,775.17,114.99z
	 M422.15,109.05V41.81c0-3.27,2.66-5.94,5.94-5.94H572.6c3.27,0,5.94,2.66,5.94,5.94v67.24c0,3.27-2.66,5.94-5.94,5.94H428.09
	C424.82,114.99,422.15,112.33,422.15,109.05z M839.22,309.74c0,35.32-28.73,64.05-64.05,64.05H225.52
	c-35.32,0-64.05-28.73-64.05-64.05v-100.7c0-35.32,28.73-64.05,64.05-64.05h202.57H572.6h202.57c35.32,0,64.05,28.73,64.05,64.05
	V309.74z"/>
</svg>
