<?xml version="1.0" encoding="utf-8"?>
<!-- Generator: Adobe Illustrator 25.0.1, SVG Export Plug-In . SVG Version: 6.00 Build 0)  -->
<svg version="1.1" id="Warstwa_3" xmlns="http://www.w3.org/2000/svg" xmlns:xlink="http://www.w3.org/1999/xlink" x="0px" y="0px"
	 viewBox="0 0 1000 1000" style="enable-background:new 0 0 1000 1000;" xml:space="preserve">
<path d="M944.75,171.1H57.32c-29.36,0-53.25,23.89-53.25,53.25v52.82c0,27.07,20.31,49.47,46.48,52.8
	c-3.56,7.14-5.58,15.18-5.58,23.69v17.31c0,29.36,23.89,53.25,53.25,53.25h45.42c-1.06,3.97-1.57,8.12-1.47,12.32l8.7,352.21
	c0.56,22.51,17.58,40.15,38.74,40.15h10.12c21.17,0,38.19-17.63,38.75-40.15l8.7-352.21c0.1-4.2-0.41-8.35-1.47-12.32h503.2
	c-1.06,3.97-1.57,8.12-1.46,12.32l8.7,352.21c0.56,22.51,17.58,40.15,38.75,40.15h10.12c21.17,0,38.19-17.63,38.74-40.15l8.7-352.21
	c0.1-4.2-0.41-8.35-1.47-12.32h52.84c29.36,0,53.25-23.89,53.25-53.25v-17.31c0-8.51-2.02-16.55-5.58-23.69
	c26.18-3.34,46.48-25.73,46.48-52.8v-52.82C998,194.99,974.11,171.1,944.75,171.1z M213.87,426.7c2.21,2.26,3.42,5.58,3.33,9.1
	l-8.7,352.21c-0.15,6-4.08,10.89-8.75,10.89h-10.12c-4.68,0-8.6-4.88-8.75-10.89l-8.7-352.21c-0.09-3.52,1.13-6.84,3.33-9.1
	c1.1-1.13,2.94-2.48,5.42-2.48h27.52C210.93,424.23,212.77,425.57,213.87,426.7z M819.15,426.7c2.21,2.26,3.42,5.58,3.33,9.1
	l-8.7,352.21c-0.15,6-4.08,10.89-8.75,10.89h-10.12c-4.68,0-8.61-4.88-8.75-10.89l-8.7-352.21c-0.09-3.52,1.13-6.84,3.33-9.1
	c1.1-1.13,2.94-2.48,5.42-2.48h27.52C816.21,424.23,818.05,425.57,819.15,426.7z M927.1,370.98c0,12.82-10.43,23.25-23.25,23.25
	h-90.12h-27.52H208.45h-27.52h-82.7c-12.82,0-23.25-10.43-23.25-23.25v-17.31c0-12.82,10.43-23.25,23.25-23.25h805.62
	c12.82,0,23.25,10.43,23.25,23.25V370.98z M968,277.17c0,12.82-10.43,23.25-23.25,23.25h-40.9H98.23h-40.9
	c-12.82,0-23.25-10.43-23.25-23.25v-52.82c0-12.82,10.43-23.25,23.25-23.25h887.43c12.82,0,23.25,10.43,23.25,23.25V277.17z"/>
</svg>
