<?xml version="1.0" encoding="utf-8"?>
<!-- Generator: Adobe Illustrator 25.0.1, SVG Export Plug-In . SVG Version: 6.00 Build 0)  -->
<svg version="1.1" id="Warstwa_3" xmlns="http://www.w3.org/2000/svg" xmlns:xlink="http://www.w3.org/1999/xlink" x="0px" y="0px"
	 viewBox="0 0 1000 1000" style="enable-background:new 0 0 1000 1000;" xml:space="preserve">
<path d="M820.32,514.65c-8.9,0-17.65,0.67-26.19,1.95L699.4,162.63h195.18c8.28,0,15-6.72,15-15c0-8.28-6.72-15-15-15H681.03
	c-2.23,0-4.35,0.5-6.25,1.38c-7.19,2.65-11.31,10.39-9.29,17.94l68.84,257.24c-2.55-0.77-5.24-1.18-8-1.18H419.58l-38.25-142.94
	h87.24c8.28,0,15-6.72,15-15s-6.72-15-15-15H255.01c-8.28,0-15,6.72-15,15s6.72,15,15,15h95.26l40.63,151.82
	c-0.26,0.28-0.51,0.56-0.76,0.85L280.06,547.4c-28.86-20.61-64.17-32.75-102.25-32.75c-97.25,0-176.36,79.12-176.36,176.36
	s79.12,176.36,176.36,176.36c92.19,0,168.08-71.11,175.72-161.36h120.6c7.17,0,13.97-2.74,19.13-7.71l252.2-242.83
	c0.34-0.33,0.66-0.67,0.98-1.02l18.49,69.11c-70.2,23.28-120.98,89.54-120.98,167.44c0,97.25,79.12,176.36,176.36,176.36
	s176.36-79.12,176.36-176.36S917.57,514.65,820.32,514.65z M400.33,452.1l59.92,223.91H353.53c-3.59-42.42-22.25-80.61-50.61-109.18
	L400.33,452.1z M283.43,589.79c21.97,22.91,36.58,52.93,39.98,86.22H210.22L283.43,589.79z M177.81,837.37
	c-80.7,0-146.36-65.66-146.36-146.36s65.66-146.36,146.36-146.36c30.69,0,59.2,9.5,82.76,25.71l-76.59,90.21
	c-7.04,8.29-8.57,19.57-4.01,29.44c4.57,9.87,14.16,16,25.04,16h118.4C315.87,779.69,253.45,837.37,177.81,837.37z M487.58,662.12
	l-59.97-224.11h292.73L487.58,662.12z M820.32,837.37c-80.7,0-146.36-65.66-146.36-146.36c0-64.04,41.35-118.6,98.75-138.4
	l34.06,127.28c2.14,8,10.37,12.75,18.37,10.61h0c8-2.14,12.75-10.37,10.61-18.37L801.94,545.8c6.02-0.76,12.16-1.15,18.38-1.15
	c80.7,0,146.36,65.66,146.36,146.36S901.02,837.37,820.32,837.37z"/>
</svg>
