<?xml version="1.0" encoding="utf-8"?>
<!-- Generator: Adobe Illustrator 25.0.1, SVG Export Plug-In . SVG Version: 6.00 Build 0)  -->
<svg version="1.1" id="Warstwa_3" xmlns="http://www.w3.org/2000/svg" xmlns:xlink="http://www.w3.org/1999/xlink" x="0px" y="0px"
	 viewBox="0 0 1000 1000" style="enable-background:new 0 0 1000 1000;" xml:space="preserve">
<path d="M810.91,810.87H605.16c-11.36,0-20.58-9.22-20.58-20.58c0-11.36,9.22-20.58,20.58-20.58h205.76
	c34.03,0,61.73-27.69,61.73-61.73v-41.15c0-11.36,9.22-20.58,20.58-20.58H934c11.36,0,20.58-9.22,20.58-20.58V378.79
	c0-11.36-9.22-20.58-20.58-20.58h-40.78c-11.36,0-20.58-9.22-20.58-20.58v-41.15c0-34.03-27.69-61.73-61.73-61.73H687.46
	c-11.36,0-20.58-9.22-20.58-20.58c0-11.36,9.22-20.58,20.58-20.58h123.45c56.71,0,102.88,46.17,102.88,102.88v20.58H934
	c34.03,0,61.73,27.69,61.73,61.73v246.91c0,34.03-27.69,61.73-61.73,61.73h-20.21v20.58C913.79,764.7,867.62,810.87,810.91,810.87z"
	/>
<path d="M275.95,808.63h-164.6c-56.71,0-102.88-46.17-102.88-102.88V294.24c0-56.71,46.17-102.88,102.88-102.88H399.4
	c11.36,0,20.58,9.22,20.58,20.58c0,11.36-9.22,20.58-20.58,20.58H111.34c-34.03,0-61.73,27.69-61.73,61.73v411.51
	c0,34.03,27.69,61.73,61.73,61.73h164.6c11.36,0,20.58,9.22,20.58,20.58S287.3,808.63,275.95,808.63z"/>
<path d="M391.29,893.18c-3.25,0-6.58-0.78-9.63-2.39c-8.85-4.69-13.04-15.1-9.88-24.65l86.17-261.02H296.52
	c-7.65,0-14.65-4.24-18.23-11.03c-3.54-6.79-3.05-14.98,1.32-21.28L564.62,161.3c5.6-8.07,16.25-10.95,25.14-7.16
	c9.01,3.95,13.99,13.7,11.89,23.29l-57.94,263.08h164.32c7.82,0,14.98,4.44,18.48,11.48c3.46,7.04,2.59,15.43-2.18,21.65
	L407.59,885.15C403.6,890.38,397.51,893.18,391.29,893.18L391.29,893.18z M335.82,563.97h150.61c6.63,0,12.8,3.17,16.67,8.52
	c3.87,5.35,4.94,12.22,2.84,18.52l-57.2,173.21l217.48-282.54h-148.1c-6.21,0-12.14-2.84-16.05-7.7s-5.39-11.23-4.07-17.32
	l40.99-186.04L335.82,563.97z"/>
</svg>
