<?xml version="1.0" encoding="utf-8"?>
<!-- Generator: Adobe Illustrator 25.0.1, SVG Export Plug-In . SVG Version: 6.00 Build 0)  -->
<svg version="1.1" id="Warstwa_3" xmlns="http://www.w3.org/2000/svg" xmlns:xlink="http://www.w3.org/1999/xlink" x="0px" y="0px"
	 viewBox="0 0 1000 1000" style="enable-background:new 0 0 1000 1000;" xml:space="preserve">
<g>
	<ellipse transform="matrix(0.7071 -0.7071 0.7071 0.7071 -311.849 393.6342)" cx="319.23" cy="573.25" rx="69.48" ry="69.48"/>
	<path d="M883.21,469.95c-0.11,0-0.23,0-0.34,0c-5.11-24.02-12.49-47.52-22.15-70.35c-19.66-46.48-47.8-88.22-83.64-124.06
		c-35.84-35.84-77.58-63.98-124.06-83.64c-41.33-17.48-84.87-27.56-129.71-30.05c0-0.01,0-0.01,0-0.02
		c-39.98-16.44-68.21-57.22-68.21-103.06c0-0.21,0.01-0.42,0.01-0.63h-30c0,0.21-0.01,0.42-0.01,0.63
		c0,40.95,17.7,77.84,45.84,103.44c-7.79,0.55-15.53,1.33-23.24,2.33c0.01-0.08,0.02-0.16,0.03-0.24
		c-39.98-16.44-68.21-55.8-68.21-101.64c0-0.21,0.01-0.42,0.01-0.63h-30c0,0.21-0.01,0.42-0.01,0.63
		c0,44.76,21.15,84.68,53.97,110.29c-19.22,4.84-38.08,11.15-56.51,18.95c-46.48,19.66-88.22,47.8-124.06,83.64
		c-35.84,35.84-63.98,77.58-83.64,124.06c-9.66,22.83-17.04,46.33-22.15,70.35c-0.11,0-0.23,0-0.34,0
		c-62.33,0-113.04,50.71-113.04,113.04s50.71,113.04,113.04,113.04c6.41,0,12.7-0.55,18.83-1.58c1.19,3.02,2.4,6.03,3.67,9.02
		c19.66,46.48,47.8,88.22,83.64,124.06c35.84,35.84,77.58,63.98,124.06,83.64c48.13,20.36,99.25,30.68,151.93,30.68
		c0.36,0,0.72-0.01,1.08-0.01c0.36,0,0.72,0.01,1.08,0.01c52.69,0,103.8-10.32,151.93-30.68c46.48-19.66,88.22-47.8,124.06-83.64
		c35.84-35.84,63.98-77.58,83.64-124.06c1.27-2.99,2.48-6,3.67-9.02c6.12,1.03,12.41,1.58,18.83,1.58
		c62.33,0,113.04-50.71,113.04-113.04S945.55,469.95,883.21,469.95z M883.21,666.04c-3.65,0-7.23-0.24-10.76-0.7
		c-0.55-0.07-1.11-0.08-1.65-0.23c-6.54-1.9-14.88-7.03-19.47-5.81c-8.34,2.21-6.81,5.96-10.86,13.29
		c-0.23,0.42-0.33,0.91-0.49,1.37c-47.63,131.46-169.7,227.56-315.03,237.11c0-0.05-0.01-0.09-0.01-0.14
		c-8.24,0.59-16.56,0.9-24.95,0.93c-8.39-0.03-16.71-0.34-24.95-0.93c0,0.05-0.01,0.09-0.01,0.14
		c-145.33-9.55-267.4-105.65-315.03-237.11c-0.17-0.46-0.26-0.94-0.49-1.37c-4.05-7.33-2.52-11.08-10.86-13.29
		c-4.59-1.22-12.94,3.91-19.47,5.81c-0.53,0.15-1.1,0.16-1.65,0.23c-3.52,0.46-7.11,0.7-10.76,0.7c-45.79,0-83.04-37.25-83.04-83.04
		c0-45.79,37.25-83.04,83.04-83.04c2.02,0,4.98-0.17,6.96-0.33c8.57-0.72,14.75-0.09,17.34-3.36c4.71-5.95,3.34-10.3,4.54-15.73
		c0.13-0.57,0.23-1.13,0.35-1.7c33.08-160.78,173.6-282.81,342.92-287.45c0,0.02,0,0.04,0,0.06c3.69-0.12,7.39-0.19,11.1-0.2
		c3.71,0.01,7.41,0.08,11.1,0.2c0-0.02,0-0.04,0-0.06c20.43,0.56,40.43,2.85,59.88,6.68c22.48,20.12,38.86,45.58,38.86,78.05
		c0,60.56-49.27,109.84-109.84,109.84c-60.56,0-109.84-49.27-109.84-109.84c0-0.21,0.01-0.42,0.01-0.63h-30
		c0,0.21-0.01,0.42-0.01,0.63c0,77.11,62.73,139.84,139.84,139.84c77.11,0,139.84-62.73,139.84-139.84
		c0-20.33-3.52-39.02-10.34-55.03c-1.13-2.66-2.32-5.13-3.59-7.54c115.25,42.69,202.9,142.72,228.12,265.29
		c0.12,0.57,0.22,1.14,0.35,1.7c1.2,5.42-0.16,9.77,4.54,15.73c2.59,3.28,8.77,2.65,17.34,3.36c1.98,0.17,4.94,0.33,6.96,0.33
		c45.79,0,83.04,37.25,83.04,83.04C966.26,628.78,929,666.04,883.21,666.04z"/>
	<ellipse transform="matrix(0.7071 -0.7071 0.7071 0.7071 -205.9588 649.2759)" cx="680.77" cy="573.25" rx="69.48" ry="69.48"/>
	<path d="M500,790.65c-48.12,0-89.11-31.11-103.92-74.27c-10.56-0.17-21.1-0.52-31.63-1.19c15.36,60.54,70.31,105.45,135.55,105.45
		c63.87,0,117.87-43.04,134.53-101.63c-10.42-0.3-20.85-0.55-31.27-0.76C587.92,760.44,547.42,790.65,500,790.65z"/>
</g>
</svg>
