<?xml version="1.0" encoding="utf-8"?>
<!-- Generator: Adobe Illustrator 25.0.1, SVG Export Plug-In . SVG Version: 6.00 Build 0)  -->
<svg version="1.1" id="Warstwa_3" xmlns="http://www.w3.org/2000/svg" xmlns:xlink="http://www.w3.org/1999/xlink" x="0px" y="0px"
	 viewBox="0 0 1000 1000" style="enable-background:new 0 0 1000 1000;" xml:space="preserve">
<path d="M888.19,377.34L530.12,19.28c-8.99-9-20.95-13.95-33.68-13.95c-12.72,0-24.68,4.95-33.68,13.95L111.8,370.25
	c-13.8,13.8-17.79,33.61-10.41,51.68c7.38,18.07,24.09,29.42,43.61,29.62l42.82,0.43v477.14c0,36.15,29.41,65.55,65.55,65.55h140.38
	c19.6,0,35.55-15.95,35.55-35.55V752.27c0-5.1,1.99-9.89,5.6-13.49c3.59-3.58,8.36-5.55,13.43-5.55h0.08l128.7,0.52
	c10.45,0.04,18.96,8.58,18.96,19.03v206.33c0,19.6,15.95,35.55,35.55,35.55h139.55c36.15,0,65.55-29.41,65.55-65.55V458.47
	l17.32,0.17c0.17,0,0.34,0,0.51,0c19.51,0,36.29-11.14,43.87-29.18C906.06,411.27,902.14,391.3,888.19,377.34z M806.72,929.12
	c0,19.6-15.95,35.55-35.55,35.55H631.61c-3.06,0-5.55-2.49-5.55-5.55V752.79c0-26.93-21.91-48.92-48.84-49.03l-128.7-0.52h-0.2
	c-13.06,0-25.34,5.07-34.6,14.29c-9.31,9.27-14.43,21.61-14.43,34.74v206.85c0,3.06-2.49,5.55-5.55,5.55H253.38
	c-19.6,0-35.55-15.95-35.55-35.55V452.28l588.89,5.89V929.12z M870.76,417.84c-1.08,2.56-5.48,10.9-16.42,10.8l-709.04-7.09
	c-10.87-0.11-15.1-8.42-16.14-10.96c-1.04-2.54-3.83-11.44,3.85-19.13L483.98,40.49c3.33-3.33,7.75-5.16,12.46-5.16
	c4.71,0,9.13,1.83,12.46,5.16l358.06,358.06C874.74,406.32,871.83,415.28,870.76,417.84z"/>
</svg>
