<?xml version="1.0" encoding="utf-8"?>
<!-- Generator: Adobe Illustrator 25.0.1, SVG Export Plug-In . SVG Version: 6.00 Build 0)  -->
<svg version="1.1" id="Warstwa_3" xmlns="http://www.w3.org/2000/svg" xmlns:xlink="http://www.w3.org/1999/xlink" x="0px" y="0px"
	 viewBox="0 0 1000 1000" style="enable-background:new 0 0 1000 1000;" xml:space="preserve">
<path d="M993.94,511.69L993.94,511.69l0-23.4c0.23-39.38-22.78-75.43-58.61-91.85l-72.87-33.27l-65.52-104.52
	c-10.99-17.58-26.4-32.16-44.57-42.17c-18.18-10.01-38.78-15.24-59.42-15.13H403.62c-38.14,0-74.67,17.98-97.7,48.09l-84.67,110.8
	L79.9,398.96c-43.47,11.96-73.83,51.89-73.83,97.1v22.46v1.18v62.09v4.99v17.31c0,55.89,44.86,101.37,99.99,101.37h0.31
	c13.43,53.48,61.91,93.21,119.51,93.21s106.07-39.72,119.51-93.21h298.27c13.43,53.48,61.91,93.21,119.51,93.21
	s106.07-39.72,119.51-93.21h11.29c55.14,0,99.99-45.47,99.99-101.37v-16.67h0V511.69z M225.87,768.65
	c-51.39,0-93.21-41.81-93.21-93.21s41.81-93.21,93.21-93.21s93.21,41.81,93.21,93.21S277.27,768.65,225.87,768.65z M763.15,768.65
	c-51.39,0-93.21-41.81-93.21-93.21s41.81-93.21,93.21-93.21s93.21,41.81,93.21,93.21S814.54,768.65,763.15,768.65z M963.93,604.08
	c0,39.35-31.4,71.37-69.99,71.37h-7.59c0-67.94-55.27-123.21-123.21-123.21s-123.21,55.27-123.21,123.21H349.08
	c0-67.94-55.27-123.21-123.21-123.21c-67.91,0-123.16,55.22-123.2,123.12c-37.03-1.81-66.6-33.09-66.6-71.28v-17.31v-4.87v-62.09
	v-1.3v-22.46c0-31.75,21.3-59.78,51.77-68.17l151.12-41.38l90.81-118.85c17.39-22.74,45-36.31,73.86-36.31l289.4,0
	c0.16,0,0.32,0,0.48,0c31.47,0,61.33,16.52,78.01,43.22l70.3,112.16l81.03,37v0c25.12,11.51,41.25,36.79,41.09,64.48v23.48v4v62.09
	v9.64V604.08z"/>
</svg>
