<?xml version="1.0" encoding="utf-8"?>
<!-- Generator: Adobe Illustrator 25.0.1, SVG Export Plug-In . SVG Version: 6.00 Build 0)  -->
<svg version="1.1" id="Warstwa_3" xmlns="http://www.w3.org/2000/svg" xmlns:xlink="http://www.w3.org/1999/xlink" x="0px" y="0px"
	 viewBox="0 0 1000 1000" style="enable-background:new 0 0 1000 1000;" xml:space="preserve">
<path d="M754.55,1000H221.5c-46.03,0-83.35-30.83-83.35-68.86V68.86C138.15,30.83,175.47,0,221.5,0h533.05
	c46.03,0,83.35,30.83,83.35,68.86v862.28C837.9,969.17,800.58,1000,754.55,1000z M253.5,973.56h469.06
	c46.03,0,83.35-30.83,83.35-68.86V95.3c0-38.03-37.32-68.86-83.35-68.86H253.5c-46.03,0-83.35,30.83-83.35,68.86V904.7
	C170.15,942.73,207.46,973.56,253.5,973.56z"/>
<circle cx="488.02" cy="909.16" r="39.79"/>
<path d="M579.52,83.44H396.53c-8.28,0-15-6.72-15-15v0c0-8.28,6.72-15,15-15h182.99c8.28,0,15,6.72,15,15v0
	C594.52,76.73,587.8,83.44,579.52,83.44z"/>
</svg>
