<?xml version="1.0" encoding="utf-8"?>
<!-- Generator: Adobe Illustrator 25.0.1, SVG Export Plug-In . SVG Version: 6.00 Build 0)  -->
<svg version="1.1" id="Warstwa_3" xmlns="http://www.w3.org/2000/svg" xmlns:xlink="http://www.w3.org/1999/xlink" x="0px" y="0px"
	 viewBox="0 0 1000 1000" style="enable-background:new 0 0 1000 1000;" xml:space="preserve">
<path d="M708.23,1000h-440.4c-38.03,0-68.86-30.83-68.86-68.86V68.86C198.96,30.83,229.79,0,267.82,0h440.4
	c38.03,0,68.86,30.83,68.86,68.86v862.28C777.09,969.17,746.26,1000,708.23,1000z M294.26,973.56h387.53
	c38.03,0,68.86-30.83,68.86-68.86V95.3c0-38.03-30.83-68.86-68.86-68.86H294.26c-38.03,0-68.86,30.83-68.86,68.86V904.7
	C225.4,942.73,256.23,973.56,294.26,973.56z"/>
<circle cx="488.02" cy="909.16" r="39.79"/>
<path d="M557.2,83.44H418.85c-8.28,0-15-6.72-15-15v0c0-8.28,6.72-15,15-15H557.2c8.28,0,15,6.72,15,15v0
	C572.2,76.73,565.49,83.44,557.2,83.44z"/>
</svg>
