<?xml version="1.0" encoding="utf-8"?>
<!-- Generator: Adobe Illustrator 25.0.1, SVG Export Plug-In . SVG Version: 6.00 Build 0)  -->
<svg version="1.1" id="Warstwa_3" xmlns="http://www.w3.org/2000/svg" xmlns:xlink="http://www.w3.org/1999/xlink" x="0px" y="0px"
	 viewBox="0 0 1000 1000" style="enable-background:new 0 0 1000 1000;" xml:space="preserve">
<g>
	<path d="M741.28,990.66H258.72c-53.88,0-97.72-43.84-97.72-97.72V107.06c0-53.88,43.84-97.72,97.72-97.72h482.55
		c53.88,0,97.72,43.84,97.72,97.72v785.87C839,946.82,795.16,990.66,741.28,990.66z M258.72,39.34c-37.34,0-67.72,30.38-67.72,67.72
		v785.87c0,37.34,30.38,67.72,67.72,67.72h482.55c37.34,0,67.72-30.38,67.72-67.72V107.06c0-37.34-30.38-67.72-67.72-67.72H258.72z"
		/>
	<g>
		<path d="M500,421.55c-73.95,0-134.11-60.16-134.11-134.11c0-73.95,60.16-134.11,134.11-134.11s134.11,60.16,134.11,134.11
			C634.11,361.39,573.95,421.55,500,421.55z M500,183.34c-57.4,0-104.11,46.7-104.11,104.11S442.6,391.55,500,391.55
			s104.11-46.7,104.11-104.11S557.4,183.34,500,183.34z"/>
		<path d="M500,878.83c-97.81,0-177.38-79.57-177.38-177.38S402.19,524.06,500,524.06c97.81,0,177.38,79.57,177.38,177.38
			S597.81,878.83,500,878.83z M500,554.06c-81.27,0-147.38,66.12-147.38,147.38S418.73,848.83,500,848.83
			c81.27,0,147.38-66.12,147.38-147.38S581.27,554.06,500,554.06z"/>
		<path d="M500,795.91c-52.09,0-94.47-42.38-94.47-94.47s42.38-94.47,94.47-94.47s94.47,42.38,94.47,94.47S552.09,795.91,500,795.91
			z M500,636.98c-35.55,0-64.47,28.92-64.47,64.47s28.92,64.47,64.47,64.47s64.47-28.92,64.47-64.47S535.55,636.98,500,636.98z"/>
	</g>
</g>
</svg>
