<?xml version="1.0" encoding="utf-8"?>
<!-- Generator: Adobe Illustrator 25.0.1, SVG Export Plug-In . SVG Version: 6.00 Build 0)  -->
<svg version="1.1" xmlns="http://www.w3.org/2000/svg" xmlns:xlink="http://www.w3.org/1999/xlink" x="0px" y="0px"
	 viewBox="0 0 1000 1000" style="enable-background:new 0 0 1000 1000;" xml:space="preserve">
<g id="Warstwa_2">
</g>
<g id="Warstwa_3">
	<path d="M950.29,690.23l-0.07-0.08c-0.96-1.33-1.57-2.04-2.16-2.72c-0.17-0.2-0.36-0.41-0.71-0.87
		c-39.17-51.16-95.32-83.2-158.1-90.22c-62.26-6.96-123.48,11.63-172.38,52.37L373.67,851.3c-52.13,43.43-129.91,37.84-173.37-12.46
		c-21.7-25.12-32.16-57.2-29.44-90.35c2.72-33.16,18.25-63.11,43.73-84.33L334.9,563.93c31.27,19.7,66.73,29.48,102.13,29.47
		c43.71,0,87.31-14.9,122.74-44.41l238.72-198.86c17.23-14.36,28.09-34.56,30.58-56.9c1.94-17.43-1.37-34.73-9.42-49.96l41.88-34.89
		c15.14-12.61,24.46-30.38,26.26-50.04c1.79-19.66-4.17-38.83-16.78-53.96l-63.03-75.66c-30.76-36.92-76.64-32.45-104.2-9.49
		l-41.77,34.8c-0.51-0.41-1.04-0.79-1.56-1.19l-0.01-0.01l0,0c-13.2-9.93-29.03-15.9-45.86-17.09
		c-22.41-1.59-44.25,5.44-61.48,19.79L314.37,254.4c-64.1,53.4-86,141.75-55.32,218.47l-118,98.29
		c-49.49,41.23-80.46,99.2-87.18,163.22c-6.77,64.39,11.87,127.21,52.48,176.86c41.02,50.17,99.21,81.2,163.85,87.39
		c7.88,0.75,15.73,1.13,23.53,1.13c56.27,0,110.2-19.42,153.91-55.83l236.14-196.71c51.98-43.3,129.46-36.29,172.83,15.61l1.99,2.52
		l0.38,0.19c3.35,3.77,10.46,10.4,22.44,11.49c13.75,1.24,28.79-5.2,45.93-19.69c17.86-14.88,27.61-28.5,29.8-41.61
		C958.73,706.34,956.42,697.76,950.29,690.23z M722.99,42.29c16.79-13.99,43.47-16.54,61.95,5.64l63.03,75.66
		c7.48,8.98,11.01,20.36,9.95,32.04c-1.06,11.68-6.6,22.23-15.58,29.71l-41.92,34.92L680.92,77.33L722.99,42.29z M908.1,734.33
		l-0.09,0.08c-14.77,12.5-22.01,12.92-23.88,12.75c-1.45-0.13-2.11-0.78-3.4-2.34c-0.42-0.5-0.94-1.15-1.62-1.83
		c-54.06-64.01-150.07-72.51-214.54-18.81L428.44,920.88c-43.58,36.3-98.76,53.3-155.38,47.89
		c-56.61-5.42-107.57-32.59-143.49-76.52c-73.08-89.37-59.31-223.07,30.68-298.04l126.56-105.42c5.32-4.44,6.95-11.9,4-18.08
		c-31.42-66.63-13.84-146.1,42.76-193.26L572.29,78.59c10.58-8.82,23.42-13.15,36.19-13.15c14.7,0,29.31,5.75,40.31,16.98
		l141.48,170.08c15.82,23.88,11.35,55.96-10.99,74.57L540.57,525.94c-56.6,47.15-137.94,50.09-197.74,7.19
		c-5.61-4.07-13.25-3.81-18.57,0.62L195.39,641.1c-31.72,26.42-51.05,63.69-54.43,104.93c-3.38,41.23,9.63,81.16,36.64,112.42
		c26.42,30.57,63.43,48.97,104.23,51.81c40.43,2.81,79.87-9.94,111.04-35.91l243.21-202.6c42.56-35.46,95.78-51.65,149.84-45.61
		c54.59,6.11,103.46,34.04,137.62,78.65c0.85,1.11,1.41,1.76,1.9,2.33c0.22,0.26,0.26,0.3,0.6,0.78c0.24,0.33,0.57,0.76,0.98,1.26
		c0.24,0.3,0.55,0.67,0.6,0.79C927.96,711.38,925.67,719.69,908.1,734.33z"/>
</g>
</svg>
