<?xml version="1.0" encoding="utf-8"?>
<!-- Generator: Adobe Illustrator 25.0.1, SVG Export Plug-In . SVG Version: 6.00 Build 0)  -->
<svg version="1.1" id="Warstwa_3" xmlns="http://www.w3.org/2000/svg" xmlns:xlink="http://www.w3.org/1999/xlink" x="0px" y="0px"
	 viewBox="0 0 1000 1000" style="enable-background:new 0 0 1000 1000;" xml:space="preserve">
<style type="text/css">
	.st0{fill:none;stroke:#000000;stroke-width:30;stroke-miterlimit:10;}
</style>
<path class="st0" d="M600.98,927.41c67.58,67.6,177.17,67.6,244.76,0l81.56-81.56c67.6-67.59,67.6-177.18,0-244.76L492.21,166.09
	c-22.52-22.53-59.06-22.53-81.59,0L165.89,410.73c-22.53,22.53-22.53,59.07,0,81.59L600.98,927.41z"/>
<g>
	<g>
		<path d="M550.34,393.65c-17.47,16.59-18.18,44.3-1.59,61.77c13.12,13.81,33.16,17.1,49.62,9.7c13.97,16.84,12.71,41.92-3.37,57.21
			l-24.32,23.1l-64.16-67.56c3.07-5.94,4.74-12.43,4.91-18.98c0.29-11.19-3.68-22.48-11.98-31.21
			c-16.59-17.47-44.3-18.18-61.77-1.59c-17.47,16.59-18.18,44.3-1.59,61.77c13.15,13.85,33.28,17.12,49.76,9.64l73.96,77.88
			c0,0,0.01,0.01,0.01,0.01c0,0,0.01,0.01,0.01,0.01l45.49,47.9l-21.03,19.97c-9.65,9.16-24.95,8.77-34.11-0.88l-35.51-37.39
			c3.07-5.94,4.74-12.43,4.91-18.98c0.29-11.19-3.68-22.48-11.98-31.21c-16.59-17.47-44.3-18.18-61.77-1.59
			c-17.47,16.59-18.18,44.3-1.59,61.77c13.15,13.85,33.28,17.12,49.76,9.64L529.52,662c19.98,21.04,53.35,21.9,74.39,1.92
			l21.03-19.97l33.41,35.18c-11.21,19.18-8.99,44.26,7.06,61.16c9.42,9.92,22.15,15.58,35.83,15.94
			c13.68,0.35,26.68-4.64,36.6-14.07c9.93-9.42,15.59-22.15,15.94-35.83c0.35-13.68-4.65-26.68-14.07-36.61c0,0,0,0,0,0
			c-9.42-9.92-22.15-15.58-35.83-15.94c-8.79-0.23-17.3,1.77-24.89,5.71l-88.71-93.4l24.33-23.1c14.08-13.39,21.41-31.26,21.88-49.3
			c0.44-17.14-5.33-34.43-17.37-48.18c3.1-5.96,4.78-12.48,4.95-19.05c0.29-11.19-3.68-22.48-11.98-31.21
			C595.51,377.78,567.8,377.06,550.34,393.65z M456.75,468.23c-2.89-3.04-4.27-6.97-4.17-10.86c0.1-3.89,1.68-7.74,4.72-10.63
			c6.08-5.77,15.72-5.52,21.48,0.55c5.75,6.06,5.52,15.65-0.5,21.43c-0.02,0.02-0.04,0.04-0.06,0.06c-0.02,0.02-0.04,0.04-0.06,0.06
			C472.09,474.55,462.5,474.29,456.75,468.23z M464.91,595.35c-2.89-3.04-4.27-6.97-4.17-10.86c0.1-3.89,1.68-7.74,4.72-10.63
			c6.08-5.77,15.71-5.52,21.48,0.55c5.74,6.04,5.52,15.59-0.45,21.38c-0.04,0.03-0.08,0.06-0.11,0.1c-0.04,0.04-0.07,0.07-0.1,0.11
			C480.2,601.67,470.65,601.39,464.91,595.35z M719.06,689.33c4.19,4.41,6.4,10.18,6.25,16.25c-0.16,6.07-2.67,11.72-7.08,15.91
			c-4.41,4.18-10.18,6.4-16.25,6.25c-6.07-0.16-11.72-2.67-15.91-7.08c-4.32-4.55-6.39-10.43-6.23-16.25
			c0.15-5.82,2.52-11.59,7.06-15.91c4.41-4.18,10.18-6.4,16.25-6.25C709.23,682.41,714.88,684.93,719.06,689.33z M591.44,414.86
			c5.75,6.06,5.52,15.64-0.5,21.42c-0.04,0.04-0.08,0.08-0.12,0.12c-6.08,5.71-15.67,5.45-21.42-0.61
			c-2.89-3.04-4.27-6.97-4.17-10.86c0.1-3.89,1.68-7.74,4.72-10.63C576.03,408.54,585.67,408.79,591.44,414.86z"/>
	</g>
</g>
<g>
	<path class="st0" d="M131.6,32.77l-99.34,99.33c-19.69,19.69-19.69,51.62,0,71.31l99.34,99.35c19.69,19.69,51.62,19.69,71.31,0
		l99.34-99.35c19.69-19.69,19.69-51.62,0-71.31L202.9,32.77C183.21,13.08,151.29,13.08,131.6,32.77z"/>
	<rect x="97.41" y="167.76" transform="matrix(0.7071 -0.7071 0.7071 0.7071 -101.396 145.2969)" width="54.57" height="54.57"/>
	<rect x="167.26" y="97.91" transform="matrix(0.7071 -0.7071 0.7071 0.7071 -31.5454 174.2299)" width="54.57" height="54.57"/>
</g>
</svg>
