<?xml version="1.0" encoding="utf-8"?>
<!-- Generator: Adobe Illustrator 25.0.1, SVG Export Plug-In . SVG Version: 6.00 Build 0)  -->
<svg version="1.1" id="Warstwa_3" xmlns="http://www.w3.org/2000/svg" xmlns:xlink="http://www.w3.org/1999/xlink" x="0px" y="0px"
	 viewBox="0 0 1000 1000" style="enable-background:new 0 0 1000 1000;" xml:space="preserve">
<g>
	<path d="M933.72,438.38H515.53c0,0,0,0,0,0V130.87c0-8.28-6.72-15-15-15h0c-8.28,0-15,6.72-15,15v307.51c0,0,0,0,0,0H67.34
		c-34.64,0-62.83,28.19-62.83,62.83V821.3c0,34.64,28.19,62.83,62.83,62.83h866.38c34.64,0,62.83-28.19,62.83-62.83V501.21
		C996.55,466.57,968.37,438.38,933.72,438.38z M966.55,821.3c0,18.1-14.73,32.83-32.83,32.83H67.34c-18.1,0-32.83-14.73-32.83-32.83
		V501.21c0-18.1,14.73-32.83,32.83-32.83h866.38c18.1,0,32.83,14.73,32.83,32.83V821.3z"/>
	<path d="M660.53,804.57h-320c-8.28,0-15-6.72-15-15v0c0-8.28,6.72-15,15-15h320c8.28,0,15,6.72,15,15v0
		C675.53,797.85,668.82,804.57,660.53,804.57z"/>
	<g>
		<g>
			<path d="M163.4,543.15H84.68c-8.28,0-15-6.72-15-15l0,0c0-8.28,6.72-15,15-15h78.72c8.28,0,15,6.72,15,15l0,0
				C178.4,536.43,171.69,543.15,163.4,543.15z"/>
			<path d="M312.6,543.15h-78.72c-8.28,0-15-6.72-15-15l0,0c0-8.28,6.72-15,15-15h78.72c8.28,0,15,6.72,15,15l0,0
				C327.6,536.43,320.89,543.15,312.6,543.15z"/>
		</g>
		<g>
			<path d="M909.41,543.15h-78.72c-8.28,0-15-6.72-15-15l0,0c0-8.28,6.72-15,15-15h78.72c8.28,0,15,6.72,15,15l0,0
				C924.41,536.43,917.7,543.15,909.41,543.15z"/>
			<path d="M760.21,543.15h-78.72c-8.28,0-15-6.72-15-15l0,0c0-8.28,6.72-15,15-15h78.72c8.28,0,15,6.72,15,15l0,0
				C775.21,536.43,768.5,543.15,760.21,543.15z"/>
		</g>
		<path d="M611.01,543.15h-78.72c-8.28,0-15-6.72-15-15l0,0c0-8.28,6.72-15,15-15h78.72c8.28,0,15,6.72,15,15l0,0
			C626.01,536.43,619.29,543.15,611.01,543.15z"/>
		<path d="M461.81,543.15h-78.72c-8.28,0-15-6.72-15-15l0,0c0-8.28,6.72-15,15-15h78.72c8.28,0,15,6.72,15,15l0,0
			C476.81,536.43,470.09,543.15,461.81,543.15z"/>
	</g>
	<g>
		<path d="M238,630.14h-78.72c-8.28,0-15-6.72-15-15v0c0-8.28,6.72-15,15-15H238c8.28,0,15,6.72,15,15v0
			C253,623.42,246.29,630.14,238,630.14z"/>
		<path d="M834.81,630.14h-78.72c-8.28,0-15-6.72-15-15v0c0-8.28,6.72-15,15-15h78.72c8.28,0,15,6.72,15,15v0
			C849.81,623.42,843.1,630.14,834.81,630.14z"/>
		<path d="M685.61,630.14h-78.72c-8.28,0-15-6.72-15-15v0c0-8.28,6.72-15,15-15h78.72c8.28,0,15,6.72,15,15v0
			C700.61,623.42,693.9,630.14,685.61,630.14z"/>
		<path d="M536.41,630.14h-78.72c-8.28,0-15-6.72-15-15v0c0-8.28,6.72-15,15-15h78.72c8.28,0,15,6.72,15,15v0
			C551.41,623.42,544.69,630.14,536.41,630.14z"/>
		<path d="M387.21,630.14h-78.72c-8.28,0-15-6.72-15-15v0c0-8.28,6.72-15,15-15h78.72c8.28,0,15,6.72,15,15v0
			C402.21,623.42,395.49,630.14,387.21,630.14z"/>
	</g>
	<g>
		<g>
			<path d="M163.4,717.13H84.68c-8.28,0-15-6.72-15-15l0,0c0-8.28,6.72-15,15-15h78.72c8.28,0,15,6.72,15,15l0,0
				C178.4,710.41,171.69,717.13,163.4,717.13z"/>
			<path d="M312.6,717.13h-78.72c-8.28,0-15-6.72-15-15l0,0c0-8.28,6.72-15,15-15h78.72c8.28,0,15,6.72,15,15l0,0
				C327.6,710.41,320.89,717.13,312.6,717.13z"/>
		</g>
		<g>
			<path d="M909.41,717.13h-78.72c-8.28,0-15-6.72-15-15l0,0c0-8.28,6.72-15,15-15h78.72c8.28,0,15,6.72,15,15l0,0
				C924.41,710.41,917.7,717.13,909.41,717.13z"/>
			<path d="M760.21,717.13h-78.72c-8.28,0-15-6.72-15-15l0,0c0-8.28,6.72-15,15-15h78.72c8.28,0,15,6.72,15,15l0,0
				C775.21,710.41,768.5,717.13,760.21,717.13z"/>
		</g>
		<path d="M611.01,717.13h-78.72c-8.28,0-15-6.72-15-15l0,0c0-8.28,6.72-15,15-15h78.72c8.28,0,15,6.72,15,15l0,0
			C626.01,710.41,619.29,717.13,611.01,717.13z"/>
		<path d="M461.81,717.13h-78.72c-8.28,0-15-6.72-15-15l0,0c0-8.28,6.72-15,15-15h78.72c8.28,0,15,6.72,15,15l0,0
			C476.81,710.41,470.09,717.13,461.81,717.13z"/>
	</g>
	<path d="M238,804.57h-78.72c-8.28,0-15-6.72-15-15v0c0-8.28,6.72-15,15-15H238c8.28,0,15,6.72,15,15v0
		C253,797.85,246.29,804.57,238,804.57z"/>
	<path d="M834.81,804.57h-78.72c-8.28,0-15-6.72-15-15v0c0-8.28,6.72-15,15-15h78.72c8.28,0,15,6.72,15,15v0
		C849.81,797.85,843.1,804.57,834.81,804.57z"/>
</g>
</svg>
