<?xml version="1.0" encoding="utf-8"?>
<!-- Generator: Adobe Illustrator 25.0.1, SVG Export Plug-In . SVG Version: 6.00 Build 0)  -->
<svg version="1.1" xmlns="http://www.w3.org/2000/svg" xmlns:xlink="http://www.w3.org/1999/xlink" x="0px" y="0px"
	 viewBox="0 0 1000 1000" style="enable-background:new 0 0 1000 1000;" xml:space="preserve">
<style type="text/css">
	.st0{fill:#FFFFFF;}
</style>
<g id="Warstwa_2">
	<path class="st0" d="M2451.25,425.22c-1.28,0-2.57,0.19-3.81,0.56l-378.57,113.57c-5.66,1.7-9.46,6.81-9.46,12.71v416.42
		c0,50.73,20.85,103.06,61.98,155.54c32.16,41.05,76.84,82.39,132.8,122.9c94.79,68.61,187.73,110.49,191.64,112.24
		c3.45,1.54,7.42,1.54,10.85,0c3.92-1.75,96.83-43.61,191.65-112.24c55.95-40.5,100.63-81.85,132.8-122.9
		c41.13-52.48,61.98-104.81,61.98-155.54V552.07c0-5.91-3.8-11.02-9.46-12.71l0,0l-378.56-113.57
		C2453.82,425.41,2452.54,425.22,2451.25,425.22z"/>
	<g>
		<g>
			<path d="M440.46,983.75c-3.03,0-6.06-0.06-9.11-0.17c-62-2.32-119.82-29.07-162.81-75.32c-42.49-45.71-65.89-105.33-65.89-167.87
				v-93.01c-53.76-13.62-102.41-44.35-138.03-87.41c-38.79-46.9-60.15-106.3-60.15-167.27V267.13c0-26.01,21.16-47.18,47.18-47.18
				h46.61V77.78c0-17.26,7.3-33.82,20.04-45.44c12.77-11.64,30.02-17.41,47.35-15.81c15.59,1.51,29.82,9,40.15,21.09
				c9.97,11.68,15.46,26.64,15.46,42.12v140.2h92.44V77.78c0-17.39,7.38-34.04,20.25-45.7c12.79-11.58,30.01-17.25,47.25-15.53
				c15.41,1.5,29.59,9,39.89,21.1c9.95,11.69,15.42,26.64,15.42,42.1v140.2h46.41c26.01,0,47.18,21.16,47.18,47.18v125.58
				c0,60.96-21.36,120.37-60.15,167.27c-35.61,43.06-84.27,73.79-138.03,87.41v98.71c0,31.13,13.46,60.86,36.92,81.57
				c23.75,20.96,54.26,30.33,85.92,26.37c53.85-6.73,94.6-55.18,94.78-112.7c0.3-62.88,24.99-121.92,69.51-166.27
				c44.55-44.38,103.72-68.83,166.63-68.83h145.39c35.54,0,64.45,28.91,64.45,64.45c0,35.39-28.95,64.39-64.53,64.64H787.25
				c-60,0-108.81,48.81-108.81,108.81v1.77c0,32.83-6.6,64.64-19.62,94.55c-12.56,28.87-30.49,54.64-53.28,76.6
				c-22.8,21.97-49.23,38.93-78.56,50.41C499.33,978.28,470.27,983.75,440.46,983.75z M51.65,249.95c-9.63,0-17.18,7.55-17.18,17.18
				v125.58c0,110.21,78.29,206.1,186.16,228.01l12.01,2.44v117.23c0,113.44,89.64,209.08,199.82,213.21
				c57.07,2.12,111.13-18.54,152.26-58.16c41.09-39.59,63.71-92.7,63.71-149.55v-1.77c0-76.54,62.27-138.81,138.81-138.81h143.56
				c19.14-0.16,34.71-15.69,34.71-34.64c0-18.99-15.45-34.45-34.45-34.45H785.69c-113.11,0-205.58,92.06-206.13,205.22
				c-0.22,72.54-52.27,133.75-121.06,142.35c-39.74,4.97-79.65-7.3-109.5-33.65c-29.91-26.41-47.07-64.33-47.07-104.06V623.16
				l12.01-2.44c107.87-21.91,186.16-117.8,186.16-228.01V267.13c0-9.63-7.55-17.18-17.18-17.18h-76.41V79.75
				c0-17.15-12.41-31.79-28.25-33.34c-8.97-0.89-17.55,1.92-24.17,7.91c-6.6,5.98-10.39,14.53-10.39,23.46v172.17H191.27V79.75
				c0-17.15-12.49-31.8-28.43-33.34c-9.01-0.83-17.67,2.05-24.31,8.11c-6.61,6.03-10.26,14.3-10.26,23.27v172.17H51.65z"/>
		</g>
	</g>
</g>
<g id="Warstwa_3">
</g>
</svg>
