<?xml version="1.0" encoding="utf-8"?>
<!-- Generator: Adobe Illustrator 25.0.1, SVG Export Plug-In . SVG Version: 6.00 Build 0)  -->
<svg version="1.1" id="Warstwa_3" xmlns="http://www.w3.org/2000/svg" xmlns:xlink="http://www.w3.org/1999/xlink" x="0px" y="0px"
	 viewBox="0 0 1000 1000" style="enable-background:new 0 0 1000 1000;" xml:space="preserve">
<path d="M704.17,291.67C650,237.5,575,208.33,495.83,208.33c-154.17,4.17-283.33,129.17-287.5,287.5c0,91.67,37.5,175,112.5,233.33
	C354.17,758.33,375,795.83,375,837.5V925c0,50,33.33,75,62.5,75h125v0c33.33,0,62.5-29.17,62.5-62.5v-95.83
	c0-41.67,20.83-87.5,58.33-116.67c70.83-54.17,108.33-137.5,108.33-225C791.67,420.83,758.33,345.83,704.17,291.67z M562.5,958.33
	h-125c-20.83,0-20.83-25-20.83-33.33v-50h166.67v62.5C583.33,950,575,958.33,562.5,958.33z M658.33,691.67
	c-43.49,35.58-71.96,89.93-74.75,141.67H416.61c-1.25-52.56-26.12-100.96-70.77-137.5C283.33,650,250,575,250,495.83
	C254.17,362.5,366.67,250,500,250h0c66.67,0,129.17,25,175,70.83c50,50,75,112.5,75,179.17C750,575,716.67,645.83,658.33,691.67z"/>
<path d="M500,125c12.5,0,20.83-8.33,20.83-20.83V20.83C520.83,8.33,512.5,0,500,0s-20.83,8.33-20.83,20.83v83.33
	C479.17,116.67,487.5,125,500,125z"/>
<path d="M820.83,150l-58.33,58.33c-8.33,8.33-8.33,20.83,0,29.17c4.17,4.17,12.5,4.17,16.67,4.17h0c4.17,0,12.5-4.17,12.5-4.17
	L850,179.17c8.33-8.33,8.33-20.83,0-29.17S829.17,141.67,820.83,150z"/>
<path d="M979.17,479.17h-83.33c-12.5,0-20.83,8.33-20.83,20.83s8.33,20.83,20.83,20.83h83.33c12.5,0,20.83-8.33,20.83-20.83
	S991.67,479.17,979.17,479.17z"/>
<path d="M791.67,766.67c-8.33-8.33-20.83-8.33-29.17,0s-8.33,20.83,0,29.17l58.33,58.33c4.17,4.17,12.5,4.17,16.67,4.17h0
	c8.33,0,12.5,0,12.5-4.17c8.33-8.33,8.33-20.83,0-29.17L791.67,766.67z"/>
<path d="M204.17,766.67L145.83,825c-8.33,8.33-8.33,20.83,0,29.17c4.17,4.17,12.5,4.17,16.67,4.17s8.33,0,12.5-4.17l58.33-58.33
	c8.33-8.33,8.33-20.83,0-29.17S212.5,758.33,204.17,766.67z"/>
<path d="M104.17,479.17H20.83C8.33,479.17,0,487.5,0,500s8.33,20.83,20.83,20.83h83.33c12.5,0,20.83-8.33,20.83-20.83
	S116.67,479.17,104.17,479.17z"/>
<path d="M204.17,237.5c4.17,4.17,12.5,4.17,16.67,4.17v0c4.17,0,8.33-4.17,12.5-8.33c8.33-8.33,8.33-20.83,0-29.17L175,145.83
	c-8.33-8.33-20.83-8.33-29.17,0c-8.33,8.33-8.33,20.83,0,29.17L204.17,237.5z"/>
<path d="M500,312.5c-12.5,0-20.83,8.33-20.83,20.83s8.33,20.83,20.83,20.83c79.17,0,145.83,66.67,145.83,145.83
	c0,12.5,8.33,20.83,20.83,20.83c12.5,0,20.83-8.33,20.83-20.83C687.5,395.83,604.17,312.5,500,312.5z"/>
</svg>
