<?xml version="1.0" encoding="utf-8"?>
<!-- Generator: Adobe Illustrator 25.0.1, SVG Export Plug-In . SVG Version: 6.00 Build 0)  -->
<svg version="1.1" id="Warstwa_3" xmlns="http://www.w3.org/2000/svg" xmlns:xlink="http://www.w3.org/1999/xlink" x="0px" y="0px"
	 viewBox="0 0 1000 1000" style="enable-background:new 0 0 1000 1000;" xml:space="preserve">
<g>
	<g>
		<path d="M948.82,347.89c-22.23-20.8-49.47-34.41-78.77-39.35c-31.62-5.33-64.06-0.08-93.82,15.18l-79.69,40.86
			c-8.16,4.18-11.38,14.19-7.2,22.35c4.18,8.16,14.19,11.38,22.35,7.2l79.69-40.86c54.57-27.99,105.39-8.6,134.75,18.87
			c29.37,27.47,52.09,76.89,27.79,133.2l-66.9,155.08c-12.68,29.39-39.52,37.68-60.41,35.63c-20.89-2.05-45.61-15.39-52.34-46.68
			c-13.84-64.37-61.5-116.52-124.38-136.08l-53.46-16.63c-0.81-23.53-10.15-46.81-28.07-64.73c-11.15-11.15-24.38-18.96-38.46-23.49
			L545,359.96c16.01-51.45,58.67-90.45,111.35-101.78c40.18-8.64,68.74-40.66,72.75-81.56c4.01-40.9-17.78-77.85-55.53-94.14
			l-155.08-66.9c-30.71-13.25-63.43-16.33-94.62-8.9c-28.9,6.88-55.17,22.26-75.97,44.5c-20.8,22.23-34.41,49.47-39.35,78.77
			c-5.33,31.62-0.08,64.06,15.18,93.82l107.36,209.35c-10.49,10.85-17.92,23.57-22.29,37.07L359.96,455
			c-51.45-16.01-90.45-58.67-101.78-111.35c-8.64-40.18-40.66-68.74-81.56-72.75c-40.91-4.01-77.86,17.78-94.14,55.52l-66.9,155.08
			c-13.25,30.71-16.33,63.43-8.9,94.62c6.88,28.9,22.27,55.17,44.5,75.97c22.23,20.8,49.47,34.41,78.77,39.35
			c31.62,5.33,64.06,0.08,93.82-15.18l103.38-53.02c1.58-0.81,2.98-1.84,4.17-3.03c4.96-4.96,6.4-12.74,3.03-19.32
			c-4.18-8.16-14.19-11.38-22.35-7.2l-103.38,53.02c-54.57,27.99-105.39,8.6-134.75-18.87c-29.36-27.47-52.09-76.89-27.79-133.2
			l66.9-155.08c12.68-29.39,39.52-37.68,60.41-35.63c20.89,2.05,45.61,15.39,52.34,46.68c13.84,64.37,61.5,116.52,124.38,136.08
			l54.06,16.82c0.85,23.46,10.19,46.68,28.07,64.55c11.01,11.01,24.05,18.76,37.91,23.31L455,640.04
			c-16.01,51.45-58.67,90.45-111.35,101.78c-40.18,8.64-68.74,40.66-72.75,81.56c-4.01,40.91,17.79,77.86,55.53,94.14l155.08,66.9
			c30.71,13.25,63.43,16.33,94.62,8.9c27.22-6.48,52.1-20.5,72.28-40.68c1.25-1.25,2.48-2.53,3.7-3.82
			c20.8-22.23,34.41-49.47,39.35-78.77c5.33-31.62,0.08-64.06-15.18-93.82L569.12,567.28c10.65-10.89,18.19-23.7,22.62-37.31
			l48.3,15.03c51.45,16.01,90.45,58.67,101.78,111.35c8.64,40.18,40.66,68.74,81.56,72.75c28.57,2.8,55.21-6.98,74.23-26
			c8.21-8.21,15-18.14,19.91-29.52l66.9-155.08c13.25-30.71,16.33-63.43,8.9-94.62C986.44,394.97,971.05,368.69,948.82,347.89z
			 M646.73,791.38c27.99,54.57,8.6,105.39-18.87,134.75c-27.48,29.36-76.89,52.09-133.2,27.79l-155.08-66.9
			c-29.39-12.68-37.68-39.52-35.63-60.41c2.05-20.89,15.39-45.61,46.68-52.34C415,760.44,467.14,712.78,486.7,649.9l16.72-53.76
			c13.17-0.42,26.27-3.53,38.4-9.32L646.73,791.38z M544.89,544.59c-24.59,24.59-64.6,24.59-89.19,0
			c-24.59-24.59-24.59-64.6,0-89.19c24.59-24.59,64.6-24.59,89.19,0C569.48,479.99,569.48,520,544.89,544.59z M496.57,403.86
			c-13.14,0.51-26.19,3.69-38.28,9.54L353.27,208.61c-27.99-54.57-8.6-105.39,18.87-134.75c27.46-29.37,76.89-52.09,133.2-27.79
			l155.08,66.9c29.39,12.68,37.68,39.52,35.63,60.41c-2.05,20.89-15.39,45.61-46.68,52.34c-64.37,13.84-116.52,61.5-136.08,124.38
			L496.57,403.86z"/>
	</g>
</g>
</svg>
