<?xml version="1.0" encoding="utf-8"?>
<!-- Generator: Adobe Illustrator 25.0.1, SVG Export Plug-In . SVG Version: 6.00 Build 0)  -->
<svg version="1.1" id="Warstwa_3" xmlns="http://www.w3.org/2000/svg" xmlns:xlink="http://www.w3.org/1999/xlink" x="0px" y="0px"
	 viewBox="0 0 1000 1000" style="enable-background:new 0 0 1000 1000;" xml:space="preserve">
<g>
	<path d="M501.82,993.18c-66.57,0-131.16-13.04-191.97-38.76c-58.73-24.84-111.47-60.4-156.76-105.69S72.24,750.7,47.4,691.97
		C21.68,631.16,8.64,566.57,8.64,500S21.68,368.84,47.4,308.03c24.84-58.73,60.4-111.47,105.69-156.76s98.03-80.85,156.76-105.69
		c60.81-25.72,125.4-38.76,191.97-38.76s131.16,13.04,191.97,38.76c58.73,24.84,111.47,60.4,156.76,105.69
		s80.85,98.03,105.69,156.76C981.96,368.84,995,433.43,995,500s-13.04,131.16-38.76,191.97c-24.84,58.73-60.4,111.47-105.69,156.76
		s-98.03,80.85-156.76,105.69C632.98,980.14,568.39,993.18,501.82,993.18z M501.82,36.82C246.42,36.82,38.64,244.6,38.64,500
		s207.78,463.18,463.18,463.18C757.22,963.18,965,755.4,965,500S757.22,36.82,501.82,36.82z"/>
	<path d="M501.82,826.98c-87.34,0-169.45-34.01-231.21-95.77S174.84,587.34,174.84,500c0-87.34,34.01-169.45,95.77-231.21
		c61.76-61.76,143.87-95.77,231.21-95.77c87.34,0,169.45,34.01,231.21,95.77C794.79,330.55,828.8,412.66,828.8,500
		c0,87.34-34.01,169.45-95.77,231.21C671.27,792.97,589.16,826.98,501.82,826.98z M501.82,203.02
		c-163.76,0-296.98,133.23-296.98,296.98s133.23,296.98,296.98,296.98S798.8,663.76,798.8,500S665.58,203.02,501.82,203.02z"/>
	<path d="M450.52,754.92c4.25-0.59,9.42-1.43,12.54-4.68c3.57-3.73,3.75-10.21,1.3-14.57c-1.94-3.45-5.27-5.88-8.69-7.92
		c-85.3-17.26-153.81-81.37-177.39-164.21c-4.75-7.68-10.59-15.8-19.27-14.93c-10.46,1.04-11.49,9.73-11.03,18.12
		c11.63,44.54,34.9,85.39,68.31,118.8c35.26,35.26,78.79,59.23,126.21,70.14C445.2,755.54,447.88,755.28,450.52,754.92z"/>
	<circle cx="509.85" cy="745.77" r="15"/>
</g>
</svg>
