<?xml version="1.0" encoding="utf-8"?>
<!-- Generator: Adobe Illustrator 25.0.1, SVG Export Plug-In . SVG Version: 6.00 Build 0)  -->
<svg version="1.1" id="Warstwa_3" xmlns="http://www.w3.org/2000/svg" xmlns:xlink="http://www.w3.org/1999/xlink" x="0px" y="0px"
	 viewBox="0 0 1000 1000" style="enable-background:new 0 0 1000 1000;" xml:space="preserve">
<g>
	<path d="M863.15,229.15H137.12c-73.59,0-133.46,59.87-133.46,133.46V637.4c0,73.59,59.87,133.46,133.46,133.46h726.04
		c73.59,0,133.46-59.87,133.46-133.46V362.6C996.61,289.02,936.74,229.15,863.15,229.15z M966.61,362.6v12.96h-151.4V259.15h47.94
		C920.2,259.15,966.61,305.56,966.61,362.6z M33.66,637.4V362.6c0-57.05,46.41-103.46,103.46-103.46h648.1v481.7h-648.1
		C80.07,740.85,33.66,694.44,33.66,637.4z M863.15,740.85h-47.94V405.56h151.4V637.4C966.61,694.44,920.2,740.85,863.15,740.85z"/>
	<path d="M529.78,454.62L529.78,454.62c-1.47-2.59-4.21-4.19-7.19-4.19H414.33l18.15-138.68c0.48-4.57-2.83-8.65-7.4-9.13
		c-3.11-0.33-6.13,1.12-7.83,3.73L285.58,537.01c-2.39,3.89-1.18,8.98,2.71,11.37c1.3,0.8,2.8,1.22,4.33,1.22h106.65l-14.38,138.89
		c-0.35,4.58,3.08,8.57,7.66,8.92c3.07,0.23,6.01-1.24,7.66-3.84l129.48-230.64C531.21,460.38,531.25,457.2,529.78,454.62z"/>
</g>
</svg>
