<?xml version="1.0" encoding="utf-8"?>
<!-- Generator: Adobe Illustrator 25.0.1, SVG Export Plug-In . SVG Version: 6.00 Build 0)  -->
<svg version="1.1" id="Warstwa_3" xmlns="http://www.w3.org/2000/svg" xmlns:xlink="http://www.w3.org/1999/xlink" x="0px" y="0px"
	 viewBox="0 0 1000 1000" style="enable-background:new 0 0 1000 1000;" xml:space="preserve">
<g>
	<path d="M393.34,805.73L182.18,594.57l480.63-480.63L873.97,325.1L393.34,805.73z M224.61,594.57l168.73,168.73L831.55,325.1
		L662.81,156.37L224.61,594.57z"/>
	<path d="M57.94,929.97l104.14-312.72l208.58,208.58L57.94,929.97z M175.2,672.81l-69.85,209.76l209.76-69.85L175.2,672.81z"/>
	<path d="M895.24,304.09L683.82,92.68l43.55-43.55c18.88-18.89,43.99-29.3,70.7-29.3c26.71,0,51.82,10.41,70.71,29.3l70,70
		c18.79,18.99,29.1,44.08,29.1,70.71c0,26.63-10.32,51.72-29.05,70.65L895.24,304.09z M726.25,92.68l168.99,168.99l22.32-22.32
		c27-27.32,26.99-71.75-0.03-99.06l-69.95-69.95c-13.22-13.23-30.8-20.51-49.49-20.51c-18.7,0-36.27,7.28-49.49,20.51L726.25,92.68z
		"/>
	<path d="M119,962.2c21.75,11.48,45.94,15.14,70.22,16.66c24.6,1.54,49.31,1.62,73.94,0.83c50.9-1.64,101.54-7.46,151.94-14.5
		c49.54-6.92,98.88-15.21,148.38-22.36c6.18-0.89,12.37-1.77,18.56-2.62c1.67-0.23,3.33-0.46,5-0.68c0.13-0.02,2.49-0.34,0.86-0.12
		c-1.63,0.22,0.73-0.1,0.86-0.11c3.09-0.41,6.19-0.82,9.28-1.22c12.19-1.57,24.4-3.05,36.63-4.32c24.37-2.53,48.88-4.22,73.4-3.79
		c12.06,0.21,24.11,0.94,36.09,2.34c1.38,0.16,2.76,0.33,4.13,0.51c-2.61-0.34,0.6,0.1,1.51,0.23c3.2,0.48,6.4,1.01,9.59,1.59
		c5.93,1.08,11.83,2.36,17.67,3.83c11.72,2.96,23.22,6.77,34.5,11.1c2.61,1,5.2,2.03,7.79,3.08c1.51,0.61,3.01,1.24,4.52,1.86
		c1.6,0.66-0.11-0.05-0.36-0.16c0.86,0.36,1.71,0.73,2.57,1.1c5.57,2.39,11.1,4.87,16.61,7.38c5.51,2.51,11,5.07,16.49,7.62
		c7.1,3.3,16.5,2.24,20.52-5.38c3.5-6.63,2.21-16.99-5.38-20.52c-22.68-10.55-45.46-21.16-69.22-29.1
		c-23.75-7.94-48.46-12.38-73.4-14.36c-49.35-3.93-98.95,2.29-147.8,8.85c-50,6.72-99.77,15.01-149.68,22.4
		c-12.36,1.83-24.73,3.58-37.1,5.29c-1.78,0.25,0.14-0.02,0.42-0.05c-0.95,0.13-1.9,0.25-2.85,0.38c-1.43,0.19-2.85,0.38-4.28,0.56
		c-3.09,0.4-6.19,0.8-9.28,1.19c-6.18,0.78-12.37,1.53-18.56,2.25c-24.96,2.88-49.98,5.21-75.06,6.64
		c-24.82,1.41-49.7,1.94-74.55,1.28c-11.82-0.32-23.67-0.78-35.44-1.94c-1.3-0.13-2.6-0.27-3.9-0.41c-1.12-0.13-3.88-0.5-1.19-0.12
		c-3.01-0.43-6-0.9-8.98-1.47c-5.5-1.05-10.95-2.39-16.27-4.12c-2.45-0.8-4.85-1.71-7.26-2.64c2.93,1.13-1.03-0.49-1.73-0.82
		c-1.36-0.65-2.71-1.34-4.04-2.04c-6.94-3.66-16.63-1.99-20.52,5.38C109.95,948.6,111.59,958.29,119,962.2L119,962.2z"/>
</g>
</svg>
