<?xml version="1.0" encoding="utf-8"?>
<!-- Generator: Adobe Illustrator 25.0.1, SVG Export Plug-In . SVG Version: 6.00 Build 0)  -->
<svg version="1.1" id="Warstwa_1" xmlns="http://www.w3.org/2000/svg" xmlns:xlink="http://www.w3.org/1999/xlink" x="0px" y="0px"
	 viewBox="0 0 1000 1000" style="enable-background:new 0 0 1000 1000;" xml:space="preserve">
<g>
	<path d="M293.68,918.58c-27.81,0-50.44-22.63-50.44-50.44V539.24c0-27.81,22.63-50.44,50.44-50.44s50.44,22.63,50.44,50.44v328.89
		C344.11,895.95,321.49,918.58,293.68,918.58z M293.68,518.81c-11.27,0-20.44,9.17-20.44,20.44v328.89
		c0,11.27,9.17,20.44,20.44,20.44s20.44-9.17,20.44-20.44V539.24C314.11,527.98,304.95,518.81,293.68,518.81z"/>
	<path d="M881.55,918.98H788.5V516.54c-0.37-2.49-0.76-5.45-0.76-8.7c0-160.18-129.23-290.5-288.07-290.5
		c-158.85,0-288.09,130.32-288.09,290.5c0,2.39-0.27,4.46-0.49,6.12c-0.02,0.15-0.04,0.3-0.06,0.46v404.56H118
		c-62.55,0-113.43-52.41-113.43-116.82v-203.6c0-25.71,7.96-50.09,23.01-70.51c12.4-16.82,29.24-29.99,48.17-37.84
		c2.15-53.06,13.92-104.49,35.05-153.03c21.76-50,52.49-94.86,91.33-133.34c38.88-38.52,83.99-68.76,134.06-89.86
		c51.87-21.87,106.88-32.95,163.5-32.95c56.6,0,111.6,11.09,163.47,32.95c50.06,21.1,95.16,51.33,134.04,89.85
		c38.84,38.48,69.57,83.33,91.33,133.32c21.13,48.53,32.91,99.94,35.06,152.98c18.97,7.85,35.83,21.02,48.27,37.84
		c15.1,20.44,23.08,44.84,23.08,70.57v203.63C994.93,866.57,944.07,918.98,881.55,918.98z M818.5,888.98h63.04
		c45.98,0,83.39-38.95,83.39-86.82V598.53c0-38.44-24.82-72.72-60.36-83.37L894.07,512l-0.18-10.97
		c-3.63-215.06-180.46-390.02-394.2-390.02c-213.8,0-390.66,175-394.25,390.1l-0.18,10.96l-10.5,3.16
		c-35.44,10.65-60.2,44.92-60.2,83.32v203.6c0,47.87,37.43,86.82,83.43,86.82h63.03V512.64l0.1-0.85c0.07-0.59,0.15-1.18,0.22-1.77
		c0.11-0.83,0.23-1.77,0.23-2.18c0-176.72,142.69-320.5,318.09-320.5c175.38,0,318.07,143.78,318.07,320.5
		c0,1.47,0.29,3.32,0.59,5.28l0.17,1.14V888.98z"/>
	<path d="M704.89,918.58c-27.81,0-50.44-22.63-50.44-50.44V539.24c0-27.81,22.63-50.44,50.44-50.44s50.44,22.63,50.44,50.44v328.89
		C755.32,895.95,732.7,918.58,704.89,918.58z M704.89,518.81c-11.27,0-20.44,9.17-20.44,20.44v328.89
		c0,11.27,9.17,20.44,20.44,20.44s20.44-9.17,20.44-20.44V539.24C725.32,527.98,716.16,518.81,704.89,518.81z"/>
</g>
</svg>
