<?xml version="1.0" encoding="utf-8"?>
<!-- Generator: Adobe Illustrator 25.0.1, SVG Export Plug-In . SVG Version: 6.00 Build 0)  -->
<svg version="1.1" xmlns="http://www.w3.org/2000/svg" xmlns:xlink="http://www.w3.org/1999/xlink" x="0px" y="0px"
	 viewBox="0 0 1000 1000" style="enable-background:new 0 0 1000 1000;" xml:space="preserve">
<style type="text/css">
	.st0{fill:#FFFFFF;}
</style>
<g id="Warstwa_2">
	<path class="st0" d="M2451.25,425.22c-1.28,0-2.57,0.19-3.81,0.56l-378.57,113.57c-5.66,1.7-9.46,6.81-9.46,12.71v416.42
		c0,50.73,20.85,103.06,61.98,155.54c32.16,41.05,76.84,82.39,132.8,122.9c94.79,68.61,187.73,110.49,191.64,112.24
		c3.45,1.54,7.42,1.54,10.85,0c3.92-1.75,96.83-43.61,191.65-112.24c55.95-40.5,100.63-81.85,132.8-122.9
		c41.13-52.48,61.98-104.81,61.98-155.54V552.07c0-5.91-3.8-11.02-9.46-12.71l0,0l-378.56-113.57
		C2453.82,425.41,2452.54,425.22,2451.25,425.22z"/>
	<path d="M500,999.23c-8.08,0-15.92-1.68-23.31-4.98c-3.96-1.77-98.22-44.23-194-113.56c-57.69-41.76-104.07-84.8-137.86-127.91
		c-46.18-58.94-69.6-118.93-69.6-178.32V169.96c0-25.39,16.34-47.34,40.65-54.63L483.61,5.01c10.73-3.22,22.07-3.22,32.79,0
		l367.72,110.32c24.31,7.29,40.65,29.25,40.64,54.63v404.5c0,59.39-23.42,119.38-69.6,178.32C821.38,795.9,775,838.93,717.31,880.69
		c-95.79,69.34-190.05,111.79-194.01,113.57C515.93,997.56,508.09,999.23,500,999.23z M500,32.6c-2.61,0-5.23,0.38-7.77,1.14
		L124.5,144.06c-11.53,3.46-19.27,13.86-19.27,25.9v404.51c0,52.51,21.27,106.28,63.21,159.81
		c32.06,40.91,76.41,81.99,131.84,122.11c93.3,67.53,184.82,108.76,188.67,110.48c3.51,1.57,7.22,2.37,11.05,2.37
		c3.83,0,7.55-0.79,11.04-2.36c3.86-1.73,95.37-42.94,188.68-110.49c55.42-40.12,99.78-81.2,131.83-122.11
		c41.95-53.53,63.21-107.3,63.21-159.81v-404.5c0-12.03-7.74-22.44-19.26-25.9L507.78,33.74C505.23,32.98,502.62,32.6,500,32.6z"/>
</g>
<g id="Warstwa_3">
</g>
</svg>
