<?xml version="1.0" encoding="utf-8"?>
<!-- Generator: Adobe Illustrator 25.0.1, SVG Export Plug-In . SVG Version: 6.00 Build 0)  -->
<svg version="1.1" id="Warstwa_3" xmlns="http://www.w3.org/2000/svg" xmlns:xlink="http://www.w3.org/1999/xlink" x="0px" y="0px"
	 viewBox="0 0 1000 1000" style="enable-background:new 0 0 1000 1000;" xml:space="preserve">
<path d="M42.84,894.74l11.79,8.86c21.13,15.84,46.97,24.28,73.14,24.28c5.35,0,10.72-0.43,16.06-1.17c1.43-0.2,2.82,0.52,3.48,1.8
	c22.55,43.26,67.47,71.49,116.96,71.49H730.3c50.05,0,95.04-28.44,117.43-72.18c0.73-1.42,2.33-2.15,3.88-1.75
	c0.3,0.08,0.6,0.15,0.91,0.2c6.56,1.09,13.19,1.64,19.79,1.64c26.15,0,52.01-8.45,73.11-24.28l11.8-8.86
	c14.73-11.04,25.58-26.12,31.4-43.58c7.32-21.95,5.97-45.6-3.82-66.58L881.46,563.17c-3.56-7.6-12.25-11.34-20.22-8.7l-30.61,10.2
	c-2.02,0.67-4.15-0.67-4.41-2.79l-31.49-258.24l-0.4,0.05c0.1-18.61-3.24-37.36-10.13-55.3l-40.27-104.68
	c-12.18-31.69-43.2-52.98-77.15-52.98h-68.99c-1.6,0-2.99-1.12-3.3-2.68c-8.98-45.52-49.08-79.99-97.21-79.99
	c-48.13,0-88.22,34.46-97.21,79.98c-0.31,1.57-1.7,2.68-3.3,2.68h-68.99c-33.96,0-64.96,21.29-77.15,52.98l-40.26,104.68
	c-6.91,17.95-10.23,36.68-10.15,55.3l-0.41-0.05l-31.27,256.49c-0.26,2.12-2.39,3.46-4.41,2.79l-25.33-8.45
	c-8.02-2.64-16.65,1.09-20.22,8.7L15.22,784.6c-9.79,20.98-11.14,44.62-3.82,66.58C17.25,868.63,28.11,883.7,42.84,894.74
	L42.84,894.74z M954.83,798.55c6.2,13.29,7.06,28.24,2.41,42.14c-3.69,11.06-10.57,20.6-19.87,27.58l-11.8,8.86
	c-19.26,14.45-43.93,20.45-67.63,16.5c-25.05-4.17-44.49-24.72-47.3-49.95l-25.16-226.31c-0.18-1.58,0.78-3.07,2.28-3.57
	l67.11-22.36c1.62-0.54,3.4,0.22,4.12,1.77L954.83,798.55z M713.08,155.57l40.26,104.68c14.35,37.3,9.04,78.96-14.18,111.48
	c-17.37,24.34-43.55,40.98-72.48,47.02c-2.1,0.44-4.07-1.17-4.07-3.31v-29.86c0-1.12,0.56-2.18,1.5-2.79
	c9.01-5.9,15.04-15.99,15.04-27.54v-33.07c0-11.56-6.02-21.64-15.04-27.54c-0.94-0.62-1.5-1.67-1.5-2.8v-164.7
	c0-1.86,1.51-3.37,3.37-3.37h0.81C687.15,123.77,705.75,136.55,713.08,155.57z M560.04,421.35H434.52c-1.86,0-3.37-1.51-3.37-3.37
	v-32.42c0-1.12,0.56-2.18,1.5-2.79c9.01-5.9,15.04-15.99,15.04-27.54v-33.07c0-11.56-6.02-21.64-15.04-27.54
	c-0.94-0.62-1.5-1.67-1.5-2.8V127.14c0-1.86,1.51-3.37,3.37-3.37h125.52c1.86,0,3.37,1.51,3.37,3.37v164.68
	c0,1.12-0.56,2.18-1.5,2.79c-9.01,5.9-15.04,15.99-15.04,27.54v33.07c0,11.56,6.02,21.64,15.04,27.54c0.94,0.62,1.5,1.67,1.5,2.8
	v32.42C563.41,419.85,561.9,421.35,560.04,421.35z M348.49,351.87v-26.34c0-1.86,1.51-3.37,3.37-3.37h59.39
	c1.86,0,3.37,1.51,3.37,3.37v26.32c0,1.86-1.51,3.37-3.37,3.37l-59.39,0.02C350,355.24,348.49,353.73,348.49,351.87z M394.72,289.1
	h-26.32c-1.86,0-3.37-1.51-3.37-3.37V127.14c0-1.86,1.51-3.37,3.37-3.37h26.32c1.86,0,3.37,1.51,3.37,3.37v158.58
	C398.09,287.59,396.58,289.1,394.72,289.1z M368.4,388.29h26.32c1.86,0,3.37,1.51,3.37,3.37v120.65c0,0.89-0.36,1.75-0.99,2.38
	l-13.16,13.16c-1.32,1.32-3.45,1.32-4.77,0l-13.16-13.16c-0.63-0.63-0.99-1.49-0.99-2.38V391.66
	C365.02,389.8,366.53,388.29,368.4,388.29z M579.94,351.87v-26.34c0-1.86,1.51-3.37,3.37-3.37h59.39c1.86,0,3.37,1.51,3.37,3.37
	v26.32c0,1.86-1.51,3.37-3.37,3.37l-59.39,0.02C581.45,355.24,579.94,353.73,579.94,351.87z M626.17,289.1h-26.32
	c-1.86,0-3.37-1.51-3.37-3.37V127.14c0-1.86,1.51-3.37,3.37-3.37h26.32c1.86,0,3.37,1.51,3.37,3.37v158.58
	C629.54,287.59,628.03,289.1,626.17,289.1z M599.85,388.29h26.32c1.86,0,3.37,1.51,3.37,3.37v120.65c0,0.89-0.36,1.75-0.99,2.38
	l-13.16,13.16c-1.32,1.32-3.45,1.32-4.77,0l-13.16-13.16c-0.63-0.63-0.99-1.49-0.99-2.38V391.66
	C596.48,389.8,597.98,388.29,599.85,388.29z M497.28,41.11c29.08,0,53.64,18.96,62.45,45.11c0.74,2.2-0.86,4.49-3.18,4.49H438.02
	c-2.32,0-3.93-2.29-3.19-4.49C443.64,60.08,468.2,41.11,497.28,41.11L497.28,41.11z M241.23,260.23l40.26-104.68
	c7.32-19.01,25.92-31.79,46.29-31.79h0.81c1.86,0,3.37,1.51,3.37,3.37v164.68c0,1.12-0.56,2.18-1.5,2.79
	c-9.01,5.9-15.04,15.99-15.04,27.54v33.07c0,11.56,6.02,21.64,15.04,27.54c0.94,0.62,1.5,1.67,1.5,2.8v29.86
	c0,2.14-1.97,3.74-4.07,3.31c-28.93-6.03-55.1-22.68-72.48-47.04C232.19,339.21,226.88,297.53,241.23,260.23L241.23,260.23z
	 M222.32,392.34c0.38-3.08,4.33-4.03,6.13-1.5c0.02,0.03,0.04,0.05,0.06,0.08c23.8,33.32,60.46,55.5,100.57,61.68
	c1.66,0.26,2.89,1.66,2.89,3.33v64.62c0,4.38,1.74,8.6,4.84,11.69l33.07,33.07c3.22,3.22,7.46,4.84,11.69,4.84s8.46-1.62,11.69-4.84
	l33.07-33.07c3.11-3.11,4.84-7.31,4.84-11.69v-62.76c0-1.86,1.51-3.37,3.37-3.37h125.52c1.86,0,3.37,1.51,3.37,3.37v62.76
	c0,4.38,1.74,8.6,4.84,11.69l33.07,33.07c3.22,3.22,7.46,4.84,11.69,4.84c4.23,0,8.46-1.62,11.69-4.84l33.07-33.07
	c3.11-3.11,4.84-7.31,4.84-11.69v-64.62c0-1.68,1.23-3.08,2.89-3.33c40.09-6.16,76.77-28.34,100.55-61.66
	c0.03-0.04,0.05-0.07,0.08-0.11c1.8-2.53,5.75-1.58,6.12,1.5l22.15,181.58c0.19,1.59-0.76,3.1-2.28,3.61l-30.05,10.02
	c-7.39,2.46-12.05,9.75-11.19,17.51l26.93,242.3c2.91,26.31,17.44,49.17,38.27,63.7c1.42,0.99,1.82,2.89,0.99,4.4
	c-17.23,31.32-50.22,51.48-86.76,51.48H264.28c-35.21,0-67.5-18.97-85.17-48.62c-0.94-1.58-0.46-3.62,1.1-4.6
	c22.9-14.29,38.97-38.45,42.07-66.36l26.92-242.3c0.86-7.75-3.8-15.04-11.19-17.51l-35.33-11.78c-1.52-0.51-2.47-2.01-2.28-3.61
	L222.32,392.34z M45.22,798.55l95.84-205.35c0.72-1.55,2.5-2.31,4.12-1.77l67.11,22.36c1.51,0.5,2.46,1.99,2.28,3.57l-25.14,226.31
	c-2.81,25.23-22.25,45.78-47.28,49.95c-23.79,3.93-48.41-2.07-67.65-16.5l-11.79-8.86c-9.32-6.98-16.2-16.53-19.89-27.58
	C38.16,826.81,39.02,811.85,45.22,798.55z"/>
<path d="M662.61,680.36v-11.03c0-36.47-29.66-66.13-66.13-66.13H398.09c-36.47,0-66.13,29.66-66.13,66.13v198.39
	c0,36.47,29.66,66.13,66.13,66.13h198.39c36.47,0,66.13-29.66,66.13-66.13V735.46 M365.02,669.34c0-18.24,14.83-33.07,33.07-33.07
	h198.39c18.24,0,33.07,14.83,33.07,33.07v198.39c0,18.24-14.83,33.07-33.07,33.07H398.09c-18.24,0-33.07-14.83-33.07-33.07
	L365.02,669.34L365.02,669.34z"/>
<path d="M398.09,685.87h198.39v33.07H398.09V685.87z"/>
</svg>
