<?xml version="1.0" encoding="utf-8"?>
<!-- Generator: Adobe Illustrator 25.0.1, SVG Export Plug-In . SVG Version: 6.00 Build 0)  -->
<svg version="1.1" id="Warstwa_3" xmlns="http://www.w3.org/2000/svg" xmlns:xlink="http://www.w3.org/1999/xlink" x="0px" y="0px"
	 viewBox="0 0 1000 1000" style="enable-background:new 0 0 1000 1000;" xml:space="preserve">
<path d="M807.98,766.78V336.53c0-41.7-28.49-76.86-67.03-87.05V65.4c0-32.77-26.66-59.43-59.42-59.43H318.47
	c-32.77,0-59.43,26.66-59.43,59.43v184.08c-38.53,10.2-67.03,45.36-67.03,87.05v430.25c-46.18,15.54-79.54,59.24-79.54,110.6
	c0,64.32,52.33,116.65,116.65,116.65h541.75c64.32,0,116.65-52.33,116.65-116.65C887.53,826.02,854.17,782.32,807.98,766.78z
	 M777.98,336.53v424.42c-2.35-0.14-4.72-0.22-7.11-0.22h-29.92V281.1C762.67,290.14,777.98,311.57,777.98,336.53z M318.47,35.97
	h363.06c16.22,0,29.42,13.2,29.42,29.43v695.33H289.04V65.4C289.04,49.17,302.24,35.97,318.47,35.97z M222.02,336.53
	c0-24.96,15.31-46.38,37.03-55.43v479.63h-29.92c-2.39,0-4.76,0.08-7.11,0.22V336.53z M770.88,964.03H229.13
	c-47.78,0-86.65-38.87-86.65-86.65s38.87-86.65,86.65-86.65h541.75c47.78,0,86.65,38.87,86.65,86.65S818.66,964.03,770.88,964.03z"
	/>
<path d="M553.62,91.13H446.38c-8.88,0-16.08-7.2-16.08-16.08v-4.61c0-8.88,7.2-16.08,16.08-16.08h107.25
	c8.88,0,16.08,7.2,16.08,16.08v4.61C569.7,83.93,562.5,91.13,553.62,91.13z"/>
</svg>
