<?xml version="1.0" encoding="utf-8"?>
<!-- Generator: Adobe Illustrator 25.0.1, SVG Export Plug-In . SVG Version: 6.00 Build 0)  -->
<svg version="1.1" id="Warstwa_3" xmlns="http://www.w3.org/2000/svg" xmlns:xlink="http://www.w3.org/1999/xlink" x="0px" y="0px"
	 viewBox="0 0 1000 1000" style="enable-background:new 0 0 1000 1000;" xml:space="preserve">
<style type="text/css">
	.st0{display:none;}
	.st1{display:inline;}
</style>
<g class="st0">
	<g class="st1">
		<path d="M983.2,447.04l-84.48-76.97V114.82c0-16.24-13.17-29.41-29.41-29.41H665.97c-16.24,0-29.41,13.17-29.41,29.41v16.36
			L534.54,38.22c-19.69-17.95-49.39-17.95-69.08,0L16.79,447.04C1.02,461.42-4.19,483.56,3.51,503.46
			c7.71,19.9,26.48,32.76,47.82,32.76h71.66v409.61c0,16.24,13.17,29.41,29.41,29.41h245.92c16.24,0,29.41-13.17,29.41-29.41v-248.7
			h144.53v248.7c0,16.24,13.17,29.41,29.41,29.41h245.91c16.24,0,29.41-13.17,29.41-29.41V536.22h71.67
			c21.34,0,40.11-12.86,47.82-32.76C1004.19,483.56,998.98,461.42,983.2,447.04z M847.59,477.41c-16.24,0-29.41,13.17-29.41,29.41
			v409.61h-187.1v-248.7c0-16.24-13.17-29.41-29.41-29.41H398.32c-16.24,0-29.41,13.17-29.41,29.41v248.7H181.81V506.82
			c0-16.24-13.17-29.41-29.41-29.41H70.79L500,86.31L646.17,219.5c8.61,7.84,21.04,9.87,31.69,5.16
			c10.65-4.71,17.53-15.26,17.53-26.9v-53.53h144.54v238.82c0,8.28,3.48,16.16,9.6,21.74l79.69,72.62L847.59,477.41L847.59,477.41z"
			/>
	</g>
</g>
<g>
	<g>
		<path d="M982.71,447.09l-84.39-76.9V115.22c0-16.22-13.15-29.38-29.38-29.38H665.8c-16.22,0-29.38,13.15-29.38,29.38v16.34
			L534.5,38.69c-19.67-17.93-49.34-17.93-69.01,0L17.29,447.09C1.53,461.45-3.68,483.58,4.02,503.46
			c7.7,19.88,26.45,32.72,47.77,32.72h71.59v409.19c0,16.22,13.15,29.38,29.38,29.38h245.67c16.22,0,29.38-13.15,29.38-29.38V696.93
			h144.39v248.45c0,16.22,13.15,29.38,29.38,29.38h245.66c16.22,0,29.38-13.15,29.38-29.38V536.19h71.6
			c21.32,0,40.07-12.85,47.77-32.72C1003.68,483.58,998.47,461.45,982.71,447.09z M847.23,477.43c-16.22,0-29.38,13.15-29.38,29.38
			V916h-186.9V667.55c0-16.22-13.15-29.38-29.38-29.38H398.43c-16.22,0-29.38,13.15-29.38,29.38V916H182.13V506.81
			c0-16.22-13.15-29.38-29.38-29.38H71.23L500,86.74l146.01,133.05c8.6,7.84,21.02,9.86,31.66,5.16
			c10.64-4.7,17.51-15.24,17.51-26.87v-53.47h144.39v238.58c0,8.27,3.48,16.15,9.59,21.72l79.61,72.54L847.23,477.43L847.23,477.43z
			"/>
	</g>
</g>
</svg>
